<svg width="50" height="50" viewBox="0 0 50 50" fill="none" xmlns="http://www.w3.org/2000/svg">
<path d="M11.5898 16.1626C14.3326 11.8961 19.0562 9.15335 24.5417 9.00098" stroke="#0D0D1E" stroke-width="2.3161" stroke-miterlimit="10" stroke-linecap="round" stroke-linejoin="round"/>
<path d="M40.9982 25.3057C40.8458 33.991 33.6842 41.0003 24.9988 41.0003C19.5133 41.0003 14.7897 38.2575 11.8945 34.1434" stroke="#0D0D1E" stroke-width="2.3161" stroke-miterlimit="10" stroke-linecap="round" stroke-linejoin="round"/>
<path d="M24.5435 9.00098C24.6959 9.00098 24.8483 9.00098 25.0006 9.00098C33.8384 9.00098 41 16.1626 41 25.0003C41 25.1527 41 25.1527 41 25.3051C36.124 25.6098 28.2005 25.6098 27.7434 23.7813C26.9815 21.191 30.9433 21.191 28.2005 17.9911C25.4578 14.7912 23.0198 16.315 22.5626 13.877C22.2579 12.3532 23.1721 10.5247 24.5435 9.00098Z" stroke="#0D0D1E" stroke-width="2.3161" stroke-miterlimit="10" stroke-linecap="round" stroke-linejoin="round"/>
<path d="M11.5904 16.1631C13.876 17.3821 16.7711 19.363 17.0759 20.8867C17.533 23.6295 16.6187 26.8293 13.7236 28.8102C12.5046 29.5721 12.0475 31.8577 11.8951 33.991C10.0666 31.4006 9 28.2007 9 24.8485C9 21.801 9.91425 18.7535 11.5904 16.1631Z" stroke="#0D0D1E" stroke-width="2.3161" stroke-miterlimit="10" stroke-linecap="round" stroke-linejoin="round"/>
</svg>
