<svg width="50" height="50" viewBox="0 0 50 50" fill="none" xmlns="http://www.w3.org/2000/svg">
<path d="M37.1352 24.84C37.1352 24.0417 37.0586 23.2653 36.9165 22.4999L40.0002 20.7175C39.2566 17.8743 37.7694 15.3265 35.7355 13.3253L32.6408 15.1078C31.4598 14.0908 30.093 13.3035 28.5948 12.7786V9.2028C27.228 8.83101 25.8064 8.6123 24.3302 8.6123C22.8539 8.6123 21.4214 8.83101 20.0655 9.2028V12.7786C18.5674 13.3035 17.2005 14.1017 16.0195 15.1078L12.9248 13.3253C10.9019 15.3374 9.41468 17.8853 8.66016 20.7175L11.7439 22.4999C11.6017 23.2544 11.5252 24.0417 11.5252 24.84C11.5252 25.6383 11.6126 26.4146 11.7439 27.1801L8.66016 28.9625C9.40374 31.8057 10.8909 34.3535 12.9248 36.3546L16.0195 34.5722C17.2005 35.5892 18.5674 36.3765 20.0655 36.9014V40.4772C21.4324 40.849 22.8539 41.0677 24.3302 41.0677C25.8064 41.0677 27.2389 40.849 28.5948 40.4772V36.9014C30.093 36.3765 31.4598 35.5783 32.6408 34.5722L35.7355 36.3546C37.7694 34.3426 39.2456 31.7947 40.0002 28.9625L36.9165 27.1801C37.0586 26.4146 37.1352 25.6383 37.1352 24.84ZM24.3302 30.8215C21.0278 30.8215 18.3487 28.1424 18.3487 24.84C18.3487 21.5376 21.0278 18.8585 24.3302 18.8585C27.6326 18.8585 30.3007 21.5376 30.3007 24.84C30.3007 28.1424 27.6326 30.8215 24.3302 30.8215Z" stroke="#0D0D1E" stroke-width="1.96832" stroke-miterlimit="10" stroke-linecap="round" stroke-linejoin="round"/>
</svg>
