<svg width="50" height="50" viewBox="0 0 50 50" fill="none" xmlns="http://www.w3.org/2000/svg">
<path d="M42.0004 35.2822C36.2293 35.2822 30.599 36.1326 25.0391 38.2198" stroke="#0D0D1E" stroke-width="1.8" stroke-miterlimit="10" stroke-linecap="round" stroke-linejoin="round"/>
<path d="M24.9652 38.1407C19.4053 36.1308 13.7046 35.2804 8.00391 35.2031" stroke="#0D0D1E" stroke-width="1.8" stroke-miterlimit="10" stroke-linecap="round" stroke-linejoin="round"/>
<path d="M24.9648 38.2178V16.3403C25.8798 15.6446 27.6392 14.3304 30.1729 13.3254V17.8864L31.0878 16.263L32.3546 17.5772V12.5524C34.0437 12.0885 35.9439 11.7793 38.0553 11.7793V14.4077" stroke="#0D0D1E" stroke-width="1.8" stroke-miterlimit="10" stroke-linecap="round" stroke-linejoin="round"/>
<path d="M32.3536 12.6289V17.6538L31.0868 16.3396L30.1719 17.963V13.402C30.8757 13.0927 31.5795 12.8608 32.3536 12.6289Z" stroke="#0D0D1E" stroke-width="1.8" stroke-miterlimit="10" stroke-linecap="round" stroke-linejoin="round"/>
<path d="M11.9414 14.5614V11.933C18.557 11.8557 23.3428 15.1025 24.9615 16.4167V38.2169" stroke="#0D0D1E" stroke-width="1.8" stroke-miterlimit="10" stroke-linecap="round" stroke-linejoin="round"/>
<path d="M24.9648 38.2193V16.3418" stroke="#0D0D1E" stroke-width="1.8" stroke-miterlimit="10" stroke-linecap="round" stroke-linejoin="round"/>
<path d="M24.9649 38.2195C26.654 36.9053 31.4398 32.1123 37.985 32.1896V14.5639V11.9355C35.8736 11.9355 33.9734 12.2448 32.2843 12.7086C31.5101 12.9405 30.8064 13.1724 30.1026 13.4817C27.5689 14.4866 25.8095 15.8008 24.8945 16.4966" stroke="#0D0D1E" stroke-width="1.8" stroke-miterlimit="10" stroke-linecap="round" stroke-linejoin="round"/>
<path d="M24.9654 38.2189C23.2763 36.9047 18.4905 32.1117 11.9453 32.189V14.5633V11.935C18.5609 11.8576 23.3467 15.1045 24.9654 16.4187" stroke="#0D0D1E" stroke-width="1.8" stroke-miterlimit="10" stroke-linecap="round" stroke-linejoin="round"/>
<path d="M38.0547 14.5639C39.3215 14.1774 40.6587 13.9455 41.9959 13.8682V35.2818" stroke="#0D0D1E" stroke-width="1.8" stroke-miterlimit="10" stroke-linecap="round" stroke-linejoin="round"/>
<path d="M8.00391 35.2818V13.8682C9.3411 13.9455 10.6783 14.1774 11.9451 14.5639" stroke="#0D0D1E" stroke-width="1.8" stroke-miterlimit="10" stroke-linecap="round" stroke-linejoin="round"/>
<path d="M32.3536 12.6309V17.6557L31.0868 16.3415L30.1719 17.9649V13.4039" fill="#0D0D1E"/>
<path d="M32.3536 12.6309V17.6557L31.0868 16.3415L30.1719 17.9649V13.4039" stroke="#0D0D1E" stroke-width="1.8" stroke-miterlimit="10" stroke-linecap="round" stroke-linejoin="round"/>
</svg>
