<svg width="24" height="24" viewBox="0 0 24 24" fill="none" xmlns="http://www.w3.org/2000/svg">
<path d="M18.7948 5H5.39008C4.07328 5 3 6.07328 3 7.39008V15.372C3 16.6888 4.07328 17.7621 5.39008 17.7621H6.52649L8.39346 21L10.2604 17.7621H18.7948C20.1116 17.7621 21.1849 16.6888 21.1849 15.372V7.39008C21.1939 6.07328 20.1206 5 18.7948 5Z" stroke="#090A21" stroke-width="1.8" stroke-miterlimit="10" stroke-linecap="round" stroke-linejoin="round"/>
<path d="M8.0823 12.4683C8.68004 12.4683 9.1646 11.9837 9.1646 11.386C9.1646 10.7883 8.68004 10.3037 8.0823 10.3037C7.48456 10.3037 7 10.7883 7 11.386C7 11.9837 7.48456 12.4683 8.0823 12.4683Z" fill="#090A21"/>
<path d="M12.2112 12.4683C12.8089 12.4683 13.2935 11.9837 13.2935 11.386C13.2935 10.7883 12.8089 10.3037 12.2112 10.3037C11.6135 10.3037 11.1289 10.7883 11.1289 11.386C11.1289 11.9837 11.6135 12.4683 12.2112 12.4683Z" fill="#090A21"/>
<path d="M16.344 12.4683C16.9418 12.4683 17.4263 11.9837 17.4263 11.386C17.4263 10.7883 16.9418 10.3037 16.344 10.3037C15.7463 10.3037 15.2617 10.7883 15.2617 11.386C15.2617 11.9837 15.7463 12.4683 16.344 12.4683Z" fill="#090A21"/>
</svg>
