<svg width="50" height="50" viewBox="0 0 50 50" fill="none" xmlns="http://www.w3.org/2000/svg">
<path d="M29.6984 16.1L31.6984 11.5H22.3984L24.0984 16.2" stroke="#090A21" stroke-width="2" stroke-miterlimit="10" stroke-linecap="round" stroke-linejoin="round"/>
<path d="M22.6992 16.7998H31.1992" stroke="#090A21" stroke-width="2" stroke-miterlimit="10" stroke-linecap="round" stroke-linejoin="round"/>
<path d="M29.3008 16.7998C29.3008 16.7998 39.2008 21.9998 34.8008 30.4998" stroke="#090A21" stroke-width="2" stroke-miterlimit="10" stroke-linecap="round" stroke-linejoin="round"/>
<path d="M24.6019 16.7998C24.6019 16.7998 17.2019 20.6998 18.0019 27.1998" stroke="#090A21" stroke-width="2" stroke-miterlimit="10" stroke-linecap="round" stroke-linejoin="round"/>
<path d="M13.3008 26.2998C14.3008 26.3998 18.6008 26.7998 20.7008 28.5998C23.1008 30.6998 29.1008 26.5998 29.8008 32.1998" stroke="#090A21" stroke-width="2" stroke-miterlimit="10" stroke-linecap="round" stroke-linejoin="round"/>
<path d="M23.8016 32.7H29.8016L39.6016 28.6C39.8016 28.5 40.0016 28.5 40.3016 28.5C41.3016 28.6 42.0016 29.6 41.6016 30.6C41.6016 30.6 41.1016 31.4 40.5016 31.9L31.5016 37.3C31.5016 37.3 28.9016 39.5 20.7016 38.3C16.6016 37.7 14.3016 36.7 13.1016 35.8" stroke="#090A21" stroke-width="2" stroke-miterlimit="10" stroke-linecap="round" stroke-linejoin="round"/>
<path d="M12.1008 37.1996H9.30078C8.80078 37.1996 8.30078 36.7996 8.30078 36.1996V25.0996C8.30078 24.5996 8.70078 24.0996 9.30078 24.0996H12.2008C12.7008 24.0996 13.2008 24.4996 13.2008 25.0996V36.1996C13.1008 36.7996 12.6008 37.1996 12.1008 37.1996Z" stroke="#090A21" stroke-width="2" stroke-miterlimit="10" stroke-linecap="round" stroke-linejoin="round"/>
</svg>
