<svg width="50" height="50" viewBox="0 0 50 50" fill="none" xmlns="http://www.w3.org/2000/svg">
<path d="M35.6742 16.6748H14.3242C12.4992 16.6748 11.0117 18.1623 11.0117 19.9873V31.0498C11.0117 32.8748 12.4992 34.3623 14.3242 34.3623H15.8992L18.4867 38.8498L21.0742 34.3623H35.6742C37.4992 34.3623 38.9867 32.8748 38.9867 31.0498V19.9873C38.9992 18.1623 37.5117 16.6748 35.6742 16.6748Z" stroke="#090A21" stroke-width="2" stroke-miterlimit="10" stroke-linecap="round" stroke-linejoin="round"/>
<path d="M19.2734 27.0244C20.1019 27.0244 20.7734 26.3528 20.7734 25.5244C20.7734 24.696 20.1019 24.0244 19.2734 24.0244C18.445 24.0244 17.7734 24.696 17.7734 25.5244C17.7734 26.3528 18.445 27.0244 19.2734 27.0244Z" fill="#090A21"/>
<path d="M24.9961 27.0244C25.8245 27.0244 26.4961 26.3528 26.4961 25.5244C26.4961 24.696 25.8245 24.0244 24.9961 24.0244C24.1677 24.0244 23.4961 24.696 23.4961 25.5244C23.4961 26.3528 24.1677 27.0244 24.9961 27.0244Z" fill="#090A21"/>
<path d="M30.7227 27.0244C31.5511 27.0244 32.2227 26.3528 32.2227 25.5244C32.2227 24.696 31.5511 24.0244 30.7227 24.0244C29.8942 24.0244 29.2227 24.696 29.2227 25.5244C29.2227 26.3528 29.8942 27.0244 30.7227 27.0244Z" fill="#090A21"/>
</svg>
