<svg width="50" height="50" viewBox="0 0 50 50" fill="none" xmlns="http://www.w3.org/2000/svg">
<path d="M22.7 19.0996L16 30.8996" stroke="#090A21" stroke-width="2" stroke-miterlimit="10" stroke-linecap="round" stroke-linejoin="round"/>
<path d="M34.3016 30.6996L27.6016 19.0996" stroke="#090A21" stroke-width="2" stroke-miterlimit="10" stroke-linecap="round" stroke-linejoin="round"/>
<path d="M18.3008 35H31.7008" stroke="#090A21" stroke-width="2" stroke-miterlimit="10" stroke-linecap="round" stroke-linejoin="round"/>
<path d="M25.1984 19.8002C27.7984 19.8002 29.9984 17.7002 29.9984 15.0002C29.9984 12.3002 27.8984 10.2002 25.1984 10.2002C22.5984 10.2002 20.3984 12.3002 20.3984 15.0002C20.3984 17.7002 22.5984 19.8002 25.1984 19.8002Z" stroke="#090A21" stroke-width="2" stroke-miterlimit="10" stroke-linecap="round" stroke-linejoin="round"/>
<path d="M13.4992 39.6996C16.0992 39.6996 18.2992 37.5996 18.2992 34.8996C18.2992 32.1996 16.1992 30.0996 13.4992 30.0996C10.8992 30.0996 8.69922 32.1996 8.69922 34.8996C8.69922 37.5996 10.8992 39.6996 13.4992 39.6996Z" stroke="#090A21" stroke-width="2" stroke-miterlimit="10" stroke-linecap="round" stroke-linejoin="round"/>
<path d="M36.4992 39.6996C39.0992 39.6996 41.2992 37.5996 41.2992 34.8996C41.2992 32.1996 39.1992 30.0996 36.4992 30.0996C33.8992 30.0996 31.6992 32.1996 31.6992 34.8996C31.6992 37.5996 33.7992 39.6996 36.4992 39.6996Z" stroke="#090A21" stroke-width="2" stroke-miterlimit="10" stroke-linecap="round" stroke-linejoin="round"/>
</svg>
