<svg width="406" height="100" viewBox="0 0 406 100" fill="none" xmlns="http://www.w3.org/2000/svg">
<rect width="406" height="100" rx="11" fill="black"/>
<path d="M58.6828 27.0247C58.6828 27.0247 57.9935 27.2184 56.861 27.5574C56.6641 26.9279 56.3686 26.2015 55.9747 25.4267C54.6945 23.0056 52.7742 21.6981 50.5092 21.6981C50.3615 21.6981 50.2138 21.6981 50.0168 21.7465C49.9676 21.6497 49.8691 21.6013 49.8199 21.5044C48.8351 20.4391 47.5549 19.9549 46.0285 20.0033C43.0742 20.1001 40.1198 22.1824 37.7564 25.911C36.0823 28.5258 34.8021 31.8186 34.4574 34.3851C31.0599 35.402 28.6965 36.1283 28.6472 36.1767C26.9239 36.7094 26.8746 36.7578 26.6777 38.3558C26.53 39.5664 22 73.6565 22 73.6565L59.2245 80V26.9763C58.929 26.9763 58.7813 27.0247 58.6828 27.0247ZM50.0661 29.6396C48.0965 30.2207 45.93 30.8986 43.8127 31.5281C44.4036 29.2522 45.5853 26.9763 46.964 25.4752C47.5057 24.9425 48.2442 24.313 49.0813 23.9256C49.9183 25.6688 50.1153 28.0416 50.0661 29.6396ZM46.0285 21.9887C46.7178 21.9887 47.3087 22.1339 47.8011 22.4245C47.0133 22.8119 46.2254 23.4414 45.4869 24.1677C43.6158 26.1531 42.1879 29.2522 41.597 32.206C39.8244 32.7387 38.0518 33.2713 36.4269 33.7556C37.5102 29.1069 41.4985 22.0855 46.0285 21.9887ZM40.3168 48.6216C40.5138 51.7207 48.8351 52.3986 49.3275 59.7106C49.6722 65.473 46.2254 69.3953 41.2523 69.6858C35.2452 70.0732 31.9462 66.5867 31.9462 66.5867L33.2264 61.2601C33.2264 61.2601 36.5254 63.7297 39.1843 63.536C40.9077 63.4392 41.5478 62.0349 41.4985 61.0664C41.2523 56.9988 34.4574 57.241 34.0142 50.5585C33.6203 44.9414 37.3625 39.2758 45.6346 38.7432C48.8351 38.5495 50.46 39.3243 50.46 39.3243L48.5889 46.2973C48.5889 46.2973 46.4716 45.3288 43.9605 45.5225C40.3168 45.7646 40.2676 48.0405 40.3168 48.6216ZM52.0356 29.0585C52.0356 27.6058 51.8387 25.5236 51.1493 23.7803C53.4143 24.2161 54.4975 26.6857 54.9899 28.1869C54.1036 28.429 53.1189 28.7195 52.0356 29.0585Z" fill="white"/>
<path d="M60.3594 79.9024L75.8203 76.1254C75.8203 76.1254 69.1731 31.9148 69.1239 31.6242C69.0746 31.3337 68.8284 31.14 68.5822 31.14C68.336 31.14 64.003 31.0431 64.003 31.0431C64.003 31.0431 61.3441 28.5251 60.3594 27.5566V79.9024Z" fill="white"/>
<path d="M95.0547 37H96.9531V32.3125H101.805V30.7656H96.9531V27.6562H102.547V26.1016H95.0547V37ZM104.961 37H106.859V26.1016H104.961V37ZM109.977 37H111.789V28.2734H111.633L116.352 37H118.719V26.1016H116.906V34.8281H117.062L112.344 26.1016H109.977V37ZM121.836 37H125.867C129.203 37 131.023 34.6875 131.023 31.5391C131.023 28.3594 129.164 26.1016 125.938 26.1016H121.836V37ZM123.734 35.4453V27.6562H125.695C127.969 27.6562 129.102 29.1562 129.102 31.5234C129.102 34 127.852 35.4453 125.695 35.4453H123.734ZM138.352 37H140.25V26.1016H138.352V37ZM146.055 37H147.953V27.6562H151.375V26.1016H142.625V27.6562H146.055V37ZM163.07 37.2031C166.25 37.2031 168.164 34.9219 168.164 31.5156C168.164 28.0938 166.242 25.8984 163.07 25.8984C159.891 25.8984 157.969 28.0938 157.969 31.5156C157.969 34.9219 159.891 37.2031 163.07 37.2031ZM163.07 35.625C161.086 35.625 159.898 33.8672 159.898 31.5156C159.898 29.1875 161.055 27.4766 163.07 27.4766C165.078 27.4766 166.234 29.1875 166.234 31.5156C166.234 33.8672 165.047 35.625 163.07 35.625ZM170.852 37H172.664V28.2734H172.508L177.227 37H179.594V26.1016H177.781V34.8281H177.938L173.219 26.1016H170.852V37ZM190.055 37H191.953V27.6562H195.375V26.1016H186.625V27.6562H190.055V37ZM197.742 37H199.641V32.1406H204.57V37H206.469V26.1016H204.57V30.5859H199.641V26.1016H197.742V37ZM209.586 37H217.5V35.4453H211.484V32.1641H216.891V30.6094H211.484V27.6562H217.25V26.1016H209.586V37Z" fill="white"/>
<path d="M104.527 57.7208C101.342 56.8401 98.9148 56.2327 98.9148 53.8335C98.9148 51.5862 101.039 50.7662 103.223 50.7662C106.044 50.7662 107.895 51.981 108.107 54.9875H112.385C112.142 49.764 108.836 47.1826 103.344 47.1826C98.6114 47.1826 94.6371 49.1566 94.6371 53.9854C94.6371 58.8141 98.7025 60.2718 102.495 61.3651C106.044 62.3369 108.836 62.9139 108.836 65.6472C108.836 67.9553 106.894 69.3219 103.981 69.3219C100.553 69.3219 98.4598 67.4086 98.2777 63.9769H94C94.1517 69.5345 97.762 72.9358 104.012 72.9358C108.714 72.9358 113.144 70.7189 113.144 65.465C113.144 60.9399 109.958 59.2089 104.527 57.7512V57.7208Z" fill="white"/>
<path d="M125.702 53.8944C123.67 53.8944 121.698 54.9877 120.757 56.8402V47.4561H116.57V72.45H120.757V61.9422C120.757 58.9964 122.153 57.4172 124.307 57.4172C126.461 57.4172 127.644 58.8142 127.644 61.6993V72.45H131.831V60.8186C131.831 56.3846 129.464 53.864 125.733 53.864L125.702 53.8944Z" fill="white"/>
<path d="M143.789 53.8936C138.54 53.8936 135.203 57.8112 135.203 63.3992C135.203 68.9871 138.54 72.9048 143.819 72.9048C149.098 72.9048 152.405 69.0175 152.405 63.3992C152.405 57.7808 149.098 53.8936 143.789 53.8936V53.8936ZM143.789 69.3819C140.998 69.3819 139.451 66.7702 139.451 63.3992C139.451 60.0282 140.998 57.4164 143.789 57.4164C146.58 57.4164 148.158 59.9674 148.158 63.3992C148.158 66.8309 146.61 69.3819 143.789 69.3819Z" fill="white"/>
<path d="M165.205 53.8936C162.869 53.8936 161.049 55.0172 159.957 57.1734V54.3491H155.922V79.2216H160.109V70.1108C161.079 71.69 162.748 72.9351 165.114 72.9351C169.271 72.9351 172.517 69.2301 172.517 63.3688C172.517 57.8416 169.605 53.8936 165.205 53.8936V53.8936ZM164.235 69.3819C161.686 69.3819 160.139 66.9524 160.139 63.4903V63.2473C160.139 59.7852 161.656 57.4164 164.235 57.4164C166.813 57.4164 168.33 59.7245 168.33 63.3384C168.33 66.9524 166.813 69.3819 164.235 69.3819V69.3819Z" fill="white"/>
<path d="M180.371 47.6377H176.094V51.859H180.371V47.6377Z" fill="white"/>
<path d="M180.312 54.3486H176.125V72.4488H180.312V54.3486Z" fill="white"/>
<path d="M186.229 52.8005V54.3494H183.316V57.8115H186.199V72.4495H190.385V57.8115H194.238V54.3494H190.355V52.7702C190.355 51.1302 191.174 50.4317 192.782 50.4317C193.571 50.4317 194.36 50.614 194.815 50.7658V47.3644C194.238 47.1518 193.146 47 192.206 47C188.292 47 186.199 48.8829 186.199 52.8005H186.229Z" fill="white"/>
<path d="M204.098 67.6819L199.79 54.3497H195.391L201.792 72.298L201.216 73.9987C200.73 75.426 200.123 76.2156 198.607 76.2156C198.091 76.2156 197.605 76.1245 197.181 76.0031V79.4652C197.818 79.6474 198.667 79.7385 199.577 79.7385C202.763 79.7385 204.462 77.7645 205.402 75.0616L212.714 54.3193H208.315L204.067 67.6515L204.098 67.6819Z" fill="white"/>
<path d="M234.74 47.6377H230.766L221.938 72.4495H226.428L228.703 65.7075H238.411L240.717 72.4495H245.207L236.379 47.6377H234.74ZM229.917 62.2454L232.344 55.0782L233.587 51.2516L234.801 54.9871L237.258 62.2454H229.917V62.2454Z" fill="white"/>
<path d="M257.252 53.8936C254.916 53.8936 253.096 55.0172 252.004 57.1734V54.3491H247.969V79.2216H252.155V70.1108C253.126 71.69 254.795 72.9351 257.161 72.9351C261.318 72.9351 264.564 69.2301 264.564 63.3688C264.564 57.8416 261.651 53.8936 257.252 53.8936V53.8936ZM256.281 69.3819C253.733 69.3819 252.186 66.9524 252.186 63.4903V63.2473C252.186 59.7852 253.703 57.4164 256.281 57.4164C258.86 57.4164 260.377 59.7245 260.377 63.3384C260.377 66.9524 258.86 69.3819 256.281 69.3819V69.3819Z" fill="white"/>
<path d="M277.428 53.8936C275.092 53.8936 273.272 55.0172 272.18 57.1734V54.3491H268.145V79.2216H272.331V70.1108C273.302 71.69 274.971 72.9351 277.337 72.9351C281.493 72.9351 284.74 69.2301 284.74 63.3688C284.74 57.8416 281.827 53.8936 277.428 53.8936V53.8936ZM276.457 69.3819C273.909 69.3819 272.362 66.9524 272.362 63.4903V63.2473C272.362 59.7852 273.878 57.4164 276.457 57.4164C279.036 57.4164 280.553 59.7245 280.553 63.3384C280.553 66.9524 279.036 69.3819 276.457 69.3819V69.3819Z" fill="white"/>
<path d="M305.886 57.7208C302.7 56.8401 300.273 56.2327 300.273 53.8335C300.273 51.5862 302.397 50.7662 304.581 50.7662C307.403 50.7662 309.253 51.981 309.466 54.9875H313.744C313.501 49.764 310.164 47.1826 304.703 47.1826C299.97 47.1826 295.965 49.187 295.965 53.9854C295.965 58.7837 300.031 60.2718 303.823 61.3651C307.373 62.3369 310.164 62.9139 310.164 65.6472C310.164 67.9553 308.222 69.3219 305.309 69.3219C301.881 69.3219 299.788 67.4086 299.606 63.9769H295.328C295.48 69.5345 299.09 72.9358 305.34 72.9358C310.042 72.9358 314.472 70.7189 314.472 65.465C314.472 60.9399 311.286 59.2089 305.856 57.7512L305.886 57.7208Z" fill="white"/>
<path d="M323.449 67.0735V57.8108H327.089V54.3487H323.449V49.3682H319.262V54.3487H316.41V57.8108H319.262V67.4076C319.262 71.2037 320.961 72.9044 324.632 72.9044C325.724 72.9044 326.877 72.7222 327.484 72.4489V69.0779C327.089 69.2297 326.422 69.3816 325.603 69.3816C324.237 69.3816 323.449 68.8349 323.449 67.0431V67.0735Z" fill="white"/>
<path d="M338.223 53.8936C332.974 53.8936 329.637 57.8112 329.637 63.3992C329.637 68.9871 332.974 72.9048 338.253 72.9048C343.532 72.9048 346.839 69.0175 346.839 63.3992C346.839 57.7808 343.532 53.8936 338.223 53.8936V53.8936ZM338.223 69.3819C335.431 69.3819 333.884 66.7702 333.884 63.3992C333.884 60.0282 335.431 57.4164 338.223 57.4164C341.014 57.4164 342.591 59.9674 342.591 63.3992C342.591 66.8309 341.044 69.3819 338.223 69.3819Z" fill="white"/>
<path d="M354.364 57.2949V54.3491H350.359V72.4492H354.546V62.0629C354.546 59.4208 356.063 57.7505 358.824 57.7505C359.4 57.7505 360.007 57.8416 360.462 57.9327V54.0758C360.068 53.9543 359.461 53.8936 358.854 53.8936C356.791 53.8936 355.244 55.0476 354.334 57.2646L354.364 57.2949Z" fill="white"/>
<path d="M378.968 63.1259C378.968 57.4772 375.661 53.8633 370.625 53.8633C365.315 53.8633 362.16 57.9328 362.16 63.3689C362.16 68.805 365.528 72.9049 370.776 72.9049C374.933 72.9049 378.088 70.5361 378.755 66.9828H374.842C374.447 68.5924 372.748 69.382 370.928 69.382C368.167 69.382 366.529 67.2562 366.438 64.4622H378.998V63.0956L378.968 63.1259ZM366.408 61.4253C366.62 59.1172 368.137 57.3558 370.594 57.3558C373.052 57.3558 374.538 59.0261 374.69 61.4253H366.377H366.408Z" fill="white"/>
</svg>
