<svg width="68" height="67" viewBox="0 0 68 67" fill="none" xmlns="http://www.w3.org/2000/svg">
<path d="M47.3765 53.9825L2.5 48.0376V20.4157C2.5 16.5008 5.32745 13.1659 9.24236 12.5859L38.2417 8.09102C43.0266 7.36604 47.449 11.0635 47.449 15.9208V53.9825H47.3765Z" fill="#1E1D24" stroke="#1E1D24" stroke-width="2.17622" stroke-miterlimit="10" stroke-linecap="round" stroke-linejoin="round"/>
<path d="M52.3064 58.9119H10.4748C6.05242 58.9119 2.5 55.3595 2.5 50.9371V21.9377C2.5 17.5153 6.05242 13.9629 10.4748 13.9629H52.3064C56.7288 13.9629 60.2812 17.5153 60.2812 21.9377V50.9371C60.2812 55.3595 56.7288 58.9119 52.3064 58.9119Z" fill="#FFCF48" stroke="#1E1D24" stroke-width="3" stroke-miterlimit="10" stroke-linecap="round" stroke-linejoin="round"/>
<path d="M59.3372 42.8911H49.9124C46.5049 42.8911 43.75 40.1362 43.75 36.7288C43.75 33.3213 46.5049 30.5664 49.9124 30.5664H59.3372C62.7446 30.5664 65.4995 33.3213 65.4995 36.7288C65.4995 40.1362 62.7446 42.8911 59.3372 42.8911Z" fill="white" stroke="#1E1D24" stroke-width="3" stroke-miterlimit="10" stroke-linecap="round" stroke-linejoin="round"/>
</svg>
