<svg width="500" height="180" viewBox="0 0 500 180" fill="none" xmlns="http://www.w3.org/2000/svg">
<g clip-path="url(#clip0_3300_22856)">
<path d="M250.28 134.277C251.137 134.35 251.999 134.237 252.809 133.947C253.618 133.657 254.356 133.196 254.97 132.595C255.965 131.502 256.84 129.318 257.594 126.128C258.533 122.319 259.72 118.576 261.148 114.921C262.36 111.652 263.899 108.512 265.74 105.549C267.314 103.102 268.626 101.879 269.654 101.879C270.408 101.879 270.747 102.425 270.747 103.507C270.747 104.872 270.463 107.723 269.916 112.07C269.332 115.78 268.988 119.523 268.888 123.277C268.806 125.974 269.392 128.649 270.594 131.066C271.035 132.041 271.753 132.865 272.659 133.436C273.565 134.007 274.618 134.299 275.689 134.277C276.558 134.354 277.434 134.249 278.261 133.969C279.087 133.689 279.846 133.239 280.489 132.649C281.48 131.572 282.355 129.387 283.113 126.095C284.126 122.057 285.487 118.114 287.18 114.309C288.511 111.143 290.167 108.123 292.122 105.298C293.769 103.011 295.041 101.872 295.938 101.879C296.692 101.879 297.031 102.425 297.031 103.507C296.839 106.496 296.389 109.464 295.686 112.376C294.928 115.728 294.445 119.137 294.243 122.567C294.243 126.369 295.136 129.281 296.922 131.306C298.715 133.316 301.36 134.31 304.859 134.31C309.004 134.377 313.07 133.168 316.503 130.847C320.091 128.367 323.302 125.384 326.037 121.988C327.44 120.19 328.136 117.94 327.994 115.664C328.058 114.492 327.789 113.325 327.218 112.3C327.008 111.927 326.701 111.617 326.329 111.404C325.958 111.191 325.536 111.081 325.108 111.087C324.568 111.101 324.038 111.236 323.558 111.482C323.077 111.728 322.658 112.078 322.331 112.507C319.983 115.37 317.452 118.077 314.754 120.612C312.862 122.272 311.222 123.103 309.856 123.103C307.851 123.103 306.853 121.744 306.86 119.028C306.86 117.128 307.516 113.221 308.828 107.308C310.337 100.383 311.091 95.5946 311.091 92.9439C311.091 88.531 308.857 86.3246 304.389 86.3246C300.745 86.3246 296.827 88.2252 292.636 92.0264C288.445 95.8276 284.632 101.908 281.199 110.268C281.407 109.045 281.779 107.209 282.293 104.806C283.312 100.936 283.967 96.9795 284.25 92.9876C284.426 91.1768 283.911 89.3663 282.807 87.9193C281.808 86.8343 280.106 86.2918 277.701 86.2918C274.94 86.4219 272.278 87.3602 270.047 88.9898C266.92 91.2138 264.229 93.9947 262.11 97.193C259.293 101.351 257.06 105.875 255.473 110.639C255.684 108.129 256.027 105.631 256.501 103.157C256.916 101.147 257.467 98.7842 258.152 96.068C258.904 93.6803 259.424 91.2258 259.704 88.7386C259.749 88.3718 259.695 87.9997 259.549 87.6602C259.403 87.3207 259.17 87.0257 258.873 86.8052C257.971 86.392 256.977 86.2153 255.987 86.2918C253.921 86.1751 251.864 86.6528 250.061 87.6681C248.557 88.714 247.479 90.2643 247.022 92.0373C244.452 100.163 243.165 108.639 243.206 117.16C243.206 123.132 243.738 127.479 244.802 130.203C245.866 132.926 247.692 134.284 250.28 134.277Z" fill="black"/>
<path d="M339.66 96.2756C340.205 96.2496 340.75 96.3404 341.257 96.542C341.764 96.7436 342.223 97.0513 342.601 97.4444C343.354 98.3024 343.745 99.4177 343.694 100.557C343.664 101.857 343.332 103.132 342.722 104.281C342.113 105.43 341.244 106.422 340.185 107.177C337.356 109.307 334.082 110.77 330.607 111.459V111.251C330.497 107.546 331.404 103.882 333.231 100.656C334.948 97.7393 337.102 96.2756 339.66 96.2756ZM365.638 111.055C365.098 111.069 364.568 111.203 364.087 111.449C363.607 111.695 363.188 112.045 362.861 112.475C360.01 115.906 356.529 118.761 352.605 120.885C349.398 122.805 345.767 123.904 342.033 124.086C337.222 124.086 333.96 122.524 332.247 119.4C340.352 117.434 346.107 114.768 349.511 111.404C351.145 109.851 352.442 107.977 353.318 105.9C354.195 103.823 354.633 101.588 354.606 99.3341C354.696 97.5835 354.422 95.8333 353.801 94.1939C353.18 92.5545 352.225 91.0615 350.998 89.8092C349.717 88.6135 348.21 87.6863 346.565 87.0822C344.92 86.4781 343.171 86.2094 341.42 86.2919C337.141 86.2319 332.945 87.478 329.394 89.8638C325.823 92.2807 322.959 95.6016 321.095 99.487C319.094 103.565 318.073 108.053 318.11 112.595C318.11 119.323 320.104 124.625 324.091 128.499C328.078 132.373 333.676 134.306 340.885 134.299C346.103 134.319 351.237 132.987 355.787 130.432C359.862 128.293 363.512 125.428 366.556 121.978C367.959 120.179 368.656 117.929 368.513 115.653C368.578 114.481 368.308 113.315 367.737 112.289C367.529 111.91 367.221 111.595 366.847 111.378C366.474 111.161 366.048 111.049 365.616 111.055H365.638Z" fill="black"/>
<path d="M376.023 123.987C375.353 124.022 374.684 123.902 374.068 123.637C373.452 123.372 372.905 122.968 372.47 122.458C371.503 121.096 371.047 119.437 371.18 117.772C371.168 114.06 371.912 110.385 373.367 106.969C374.638 103.819 376.635 101.013 379.194 98.777C381.391 96.7972 384.219 95.6594 387.175 95.5656L383.393 114.31C382.936 116.85 381.912 119.254 380.397 121.344C378.99 123.106 377.532 123.987 376.023 123.987ZM372.317 134.277C377.74 134.277 382.241 131.426 385.82 125.724C386.64 128.164 388.119 130.331 390.095 131.983C391.84 133.459 394.051 134.272 396.338 134.277C399.29 134.277 402.34 133.086 405.511 130.716C408.841 128.175 411.851 125.241 414.476 121.978C415.879 120.179 416.575 117.929 416.433 115.653C416.492 114.481 416.223 113.316 415.657 112.289C415.447 111.916 415.14 111.607 414.768 111.393C414.397 111.18 413.975 111.07 413.547 111.076C413.006 111.092 412.475 111.227 411.993 111.473C411.511 111.718 411.089 112.068 410.759 112.496C408.424 115.353 405.911 118.06 403.237 120.601C401.378 122.262 399.803 123.092 398.491 123.092C398.108 123.091 397.73 123.002 397.387 122.831C397.044 122.661 396.745 122.414 396.513 122.109C395.967 121.413 395.692 120.544 395.736 119.662C395.736 116.611 396.527 111.178 398.109 103.365C398.854 100.007 399.369 96.6016 399.65 93.1735C399.65 90.7995 397.967 89.6125 394.599 89.6125C393.077 89.6057 391.558 89.741 390.062 90.0167C389.885 88.8966 389.447 87.8339 388.783 86.9145C388.359 86.5721 387.87 86.3183 387.346 86.1681C386.822 86.018 386.273 85.9747 385.732 86.0407C380.896 86.0775 376.192 87.6285 372.284 90.4755C368 93.5012 364.517 97.524 362.138 102.196C359.617 106.95 358.307 112.251 358.322 117.63C358.322 122.589 359.594 126.594 362.138 129.646C363.361 131.151 364.917 132.352 366.683 133.156C368.449 133.959 370.378 134.343 372.317 134.277V134.277Z" fill="black"/>
<path d="M434.473 48.0828C436.397 48.0828 437.359 50.6716 437.359 55.8273C437.172 63.3067 435.693 70.6975 432.986 77.6734C429.928 86.0134 426.023 94.0182 421.331 101.562C421.51 93.4983 422.34 85.462 423.813 77.5314C425.008 70.4103 426.763 63.3942 429.061 56.5482C431.094 50.9119 432.898 48.0901 434.473 48.0828ZM447.144 111.054C446.605 111.068 446.075 111.203 445.594 111.449C445.114 111.695 444.694 112.045 444.367 112.474C441.943 115.482 439.213 118.232 436.222 120.678C434.082 122.277 431.47 123.118 428.798 123.07C427.984 123.108 427.17 122.968 426.415 122.661C425.66 122.353 424.981 121.885 424.425 121.289C423.099 119.558 422.278 117.494 422.052 115.325C429.433 105.531 435.628 94.8977 440.508 83.6483C445.041 72.9728 447.308 63.5972 447.308 55.5214C447.308 49.8851 446.364 45.5559 444.477 42.5339C443.713 41.1437 442.585 39.9874 441.214 39.1888C439.842 38.3903 438.279 37.9796 436.692 38.0008C430.861 38.0008 425.828 41.8057 421.593 49.4154C417.022 57.9764 413.789 67.1854 412.005 76.7231C409.972 86.032 408.874 95.52 408.725 105.047C408.725 113.676 410.182 120.707 413.098 126.139C416.013 131.572 420.496 134.288 426.546 134.288C430.742 134.351 434.858 133.144 438.354 130.825C441.987 128.366 445.233 125.38 447.986 121.966C449.39 120.168 450.086 117.918 449.943 115.642C450.007 114.475 449.742 113.313 449.178 112.289C448.976 111.924 448.682 111.618 448.326 111.401C447.969 111.185 447.562 111.065 447.144 111.054Z" fill="black"/>
<path d="M493.119 111.054C492.578 111.07 492.047 111.205 491.565 111.451C491.083 111.697 490.661 112.046 490.331 112.474C487.463 116.115 483.822 119.073 479.671 121.136C476.034 122.96 472.03 123.935 467.961 123.987C464.462 123.987 461.82 123.376 460.034 122.152C459.218 121.671 458.541 120.986 458.069 120.165C457.598 119.343 457.348 118.413 457.345 117.466C457.345 114.484 459.411 111.469 463.533 108.455C468.378 105.029 473.602 102.174 479.102 99.9456C480.946 99.2368 482.603 98.1159 483.946 96.6687C485.053 95.2109 485.6 93.4049 485.487 91.5786C485.597 90.0431 485.214 88.5126 484.394 87.2093C484.091 86.7651 483.683 86.4022 483.206 86.1527C482.73 85.9031 482.199 85.7746 481.661 85.7784C480.804 85.8063 479.955 85.9459 479.135 86.1935C478.14 86.4666 477.473 86.6304 477.134 86.6959C475.861 87.1152 474.544 87.39 473.209 87.5152C471.219 87.5152 468.763 87.4132 465.84 87.2093C462.921 87.0018 460.909 86.8707 459.816 86.8052C454.524 86.3246 450.297 86.0842 447.133 86.0842C446.466 86.0708 445.808 86.2398 445.23 86.5728C444.652 86.9059 444.176 87.3903 443.853 87.974C443.046 89.2861 442.636 90.8035 442.672 92.3432C442.634 93.777 443.047 95.1866 443.853 96.3738C444.235 96.9211 444.757 97.3558 445.365 97.6325C445.973 97.9092 446.644 98.0178 447.308 97.9467L464.211 97.5426C457.41 100.732 452.188 104.06 448.544 107.526C446.844 109.016 445.479 110.848 444.537 112.902C443.594 114.955 443.097 117.184 443.077 119.443C443.06 122.373 444.022 125.226 445.81 127.548C447.868 130.136 450.599 132.109 453.704 133.25C457.583 134.725 461.712 135.433 465.862 135.336C471.443 135.429 476.967 134.209 481.989 131.775C486.685 129.466 490.797 126.123 494.015 121.999C495.358 120.17 496.048 117.943 495.972 115.675C496.033 114.506 495.764 113.345 495.196 112.321C494.997 111.943 494.698 111.625 494.332 111.402C493.967 111.178 493.547 111.058 493.119 111.054V111.054Z" fill="black"/>
<path d="M143.952 77.5423C143.21 76.8311 142.63 75.968 142.253 75.0121C141.876 74.0563 141.709 73.0303 141.766 72.0043C141.75 70.8601 141.997 69.7274 142.488 68.6935C142.979 67.6595 143.7 66.7519 144.597 66.0403C146.586 64.4185 149.094 63.569 151.66 63.6482C153.871 63.5473 156.051 64.1938 157.849 65.4832C158.633 66.0929 159.259 66.8832 159.672 67.7866C160.085 68.69 160.274 69.6799 160.221 70.6717C160.277 71.8798 160.065 73.0854 159.602 74.2029C159.139 75.3204 158.436 76.3225 157.542 77.1381C155.555 78.8011 153.014 79.6552 150.425 79.5303C147.538 79.5085 145.374 78.8749 143.952 77.5423ZM17.6176 133.174C14.8624 132.835 12.9819 132.081 11.9432 131.044C10.9046 130.006 10.4672 128.193 10.6094 125.746C11.3054 117.394 12.4404 109.085 14.0096 100.852C15.7881 90.985 17.9529 81.471 20.504 72.3102C20.6877 71.5373 21.0422 70.8152 21.5417 70.1972C22.0412 69.5791 22.6729 69.0806 23.3904 68.7383C25.1862 67.9939 27.1221 67.6473 29.0648 67.7225C33.2559 67.7225 35.3515 68.8767 35.3515 71.1851C35.3225 72.3029 35.1158 73.409 34.7392 74.462C32.5168 81.631 30.7241 88.926 29.371 96.3082C27.6581 104.94 26.3846 113.653 25.5552 122.414C27.6216 122.622 29.9286 122.72 32.5635 122.72C44.5975 122.72 53.5883 119.126 59.536 111.939C65.4838 104.752 68.454 95.1467 68.4467 83.124C68.4467 75.0555 66.1106 68.8148 61.4384 64.4019C56.7663 59.9889 50.1662 57.7825 41.6382 57.7825C36.0951 57.7909 30.5862 58.6493 25.3038 60.3276C20.1587 61.9023 15.2493 64.1618 10.7078 67.0452C9.8632 67.6408 8.85513 67.9612 7.82137 67.9628C7.27005 67.9709 6.72558 67.8401 6.23828 67.5823C5.75098 67.3246 5.33657 66.9482 5.03337 66.4881C4.32219 65.4193 3.96289 64.1553 4.00563 62.8726C3.95583 61.4867 4.2369 60.1088 4.82563 58.8529C5.50233 57.6706 6.4598 56.6727 7.61364 55.9474C12.7294 52.594 18.3786 50.134 24.3198 48.6726C30.3405 47.0614 36.5424 46.2245 42.7752 46.1822C51.1575 46.1822 58.4099 47.6386 64.5326 50.5514C70.4144 53.2049 75.3434 57.5919 78.6584 63.1239C81.9603 68.6873 83.6112 75.405 83.6112 83.2769C83.6112 93.5228 81.5485 102.465 77.423 110.104C73.334 117.702 67.0471 123.892 59.383 127.865C51.4672 132.067 42.0463 134.168 31.1203 134.168C26.6023 134.135 22.0915 133.803 17.6176 133.174V133.174ZM183.312 56.57C181.007 63.4108 179.248 70.4236 178.053 77.5423C176.58 85.4727 175.75 93.5091 175.572 101.573C180.261 94.0355 184.167 86.0382 187.226 77.7062C189.936 70.7309 191.415 63.3397 191.6 55.86C191.6 50.7043 190.638 48.1265 188.713 48.1265C187.103 48.0973 185.302 50.9119 183.312 56.57ZM107.982 98.7659C105.423 101 103.43 103.807 102.165 106.958C100.71 110.37 99.9663 114.042 99.9784 117.75C99.8493 119.41 100.301 121.062 101.258 122.425C101.694 122.937 102.243 123.341 102.861 123.606C103.479 123.871 104.15 123.991 104.822 123.954C106.331 123.954 107.774 123.081 109.195 121.311C110.711 119.227 111.732 116.825 112.18 114.288L115.996 95.5545C113.038 95.6357 110.204 96.7575 107.993 98.7222L107.982 98.7659ZM204.195 156.658C201.822 160.296 200.642 163.463 200.642 166.183C200.6 167.176 200.831 168.162 201.309 169.034C201.541 169.396 201.867 169.688 202.252 169.88C202.637 170.072 203.066 170.157 203.495 170.126C205.215 170.126 207.14 168.16 209.268 164.228C211.396 160.296 213.528 153.742 215.664 144.566C210.394 148.987 206.571 153.01 204.195 156.636V156.658ZM193.841 176.811C192.74 175.718 191.88 174.407 191.315 172.963C190.75 171.518 190.493 169.972 190.561 168.422C190.589 165.046 191.334 161.713 192.748 158.646C194.869 154.424 197.656 150.57 201.002 147.232C206.268 141.827 211.977 136.873 218.069 132.42L218.376 130.071C218.857 127.57 219.403 123.965 220.026 119.29C218.649 124.169 216.725 127.883 214.254 130.432C211.783 132.981 209.17 134.251 206.414 134.244C204.896 134.248 203.402 133.863 202.075 133.125C200.748 132.386 199.633 131.32 198.838 130.028C198.222 129.138 197.702 128.186 197.285 127.188C195.828 128.498 194.279 129.703 192.649 130.792C189.153 133.108 185.036 134.311 180.841 134.244C174.792 134.244 170.309 131.531 167.393 126.106C167.087 125.549 166.803 125.014 166.541 124.391C160.535 130.945 154.889 134.222 149.605 134.222C145.129 134.222 141.882 132.664 139.863 129.547C139.355 128.764 138.916 127.938 138.551 127.078C137.222 128.357 135.816 129.553 134.342 130.661C131.76 132.825 128.536 134.076 125.169 134.222C122.883 134.222 120.672 133.413 118.926 131.939C116.951 130.287 115.471 128.12 114.651 125.68C111.079 131.382 106.575 134.229 101.137 134.222C99.1988 134.298 97.2689 133.924 95.4991 133.13C93.7293 132.336 92.1677 131.143 90.9366 129.645C88.3927 126.594 87.1208 122.589 87.1208 117.63C87.1089 112.258 88.4193 106.965 90.9366 102.218C93.3064 97.518 96.794 93.4711 101.094 90.4315C105.008 87.6039 109.712 86.0756 114.542 86.0623C115.082 85.9948 115.63 86.0364 116.154 86.1846C116.678 86.3328 117.167 86.5847 117.592 86.9252C118.256 87.8446 118.695 88.9073 118.871 90.0274C120.368 89.7517 121.887 89.6164 123.409 89.6232C126.776 89.6232 128.471 90.8138 128.471 93.1841C128.182 96.6085 127.663 100.01 126.918 103.364C125.329 111.164 124.538 116.592 124.546 119.651C124.508 120.543 124.8 121.418 125.366 122.108C125.608 122.406 125.915 122.643 126.264 122.802C126.613 122.961 126.994 123.038 127.377 123.026C128.682 123.026 130.264 122.196 132.122 120.536C133.797 118.982 135.388 117.341 136.889 115.62C137.067 112.184 137.454 108.763 138.048 105.374C138.777 100.851 139.793 96.378 141.088 91.9826C141.442 90.2754 142.303 88.7145 143.559 87.5042C145.032 86.5675 146.771 86.1379 148.512 86.2808C152.017 86.2808 153.77 87.435 153.77 89.7434C153.77 91.4328 153.118 95.3688 151.813 101.551C150.162 109.023 149.342 114.069 149.342 116.723C149.26 118.324 149.54 119.922 150.162 121.398C150.409 121.918 150.808 122.352 151.305 122.642C151.802 122.932 152.376 123.066 152.95 123.026C154.186 123.026 155.728 122.185 157.586 120.481C159.73 118.443 161.76 116.288 163.665 114.025C163.239 111.041 163.035 108.029 163.053 105.014C163.201 95.4944 164.3 86.0136 166.333 76.7122C168.117 67.1744 171.35 57.9653 175.921 49.4045C180.12 41.802 185.135 38.0008 190.966 38.0008C192.553 37.9796 194.116 38.3903 195.487 39.1888C196.858 39.9874 197.986 41.1437 198.75 42.5339C200.631 45.5486 201.575 49.8742 201.582 55.5105C201.582 63.5863 199.311 72.951 194.77 83.6046C189.898 94.8576 183.703 105.491 176.315 115.282C176.538 117.447 177.36 119.508 178.687 121.235C179.243 121.831 179.923 122.299 180.678 122.606C181.433 122.914 182.246 123.053 183.061 123.015C185.733 123.064 188.345 122.222 190.485 120.623C192.487 119.046 194.342 117.291 196.028 115.38C196.15 112.058 196.467 108.746 196.979 105.462C197.753 100.881 198.894 96.3701 200.39 91.9717C200.868 90.2481 201.878 88.7191 203.277 87.6025C204.512 86.7286 206.469 86.2808 209.148 86.2808C210.246 86.1773 211.349 86.426 212.297 86.9908C212.603 87.2617 212.841 87.6003 212.993 87.9796C213.145 88.3588 213.206 88.7683 213.171 89.1754C212.934 91.0191 212.569 92.844 212.078 94.6369C211.385 97.1492 210.835 99.4249 210.427 101.464C209.88 104.249 209.399 106.925 208.984 109.449C208.622 111.517 208.417 113.609 208.372 115.708C208.372 118.296 209.093 119.585 210.558 119.585C211.586 119.585 212.876 118.558 214.429 116.527C216.434 113.644 218.093 110.535 219.37 107.264C221.409 102.285 223.114 97.1763 224.476 91.9717C224.823 90.2809 225.709 88.7479 227.002 87.6025C228.515 86.6196 230.307 86.1557 232.108 86.2808C233.236 86.1927 234.367 86.4037 235.388 86.8925C235.705 87.1225 235.957 87.4304 236.12 87.7863C236.282 88.1423 236.35 88.5342 236.317 88.9242C236.317 90.6282 235.424 96.4538 233.638 106.401L230.949 122.786C236.241 118.853 241.397 115.256 246.42 111.994C247.122 111.511 247.942 111.228 248.792 111.174C249.228 111.172 249.655 111.291 250.027 111.516C250.4 111.742 250.703 112.066 250.902 112.452C251.45 113.428 251.719 114.535 251.678 115.653C251.741 116.917 251.493 118.177 250.957 119.323C250.408 120.281 249.626 121.085 248.683 121.661L228.893 134.768C226.204 148.837 222.749 159.91 218.529 167.985C214.308 176.061 208.929 180.066 202.391 180.001C200.823 180.064 199.259 179.812 197.79 179.261C196.322 178.709 194.979 177.869 193.841 176.789V176.811Z" fill="black"/>
<path d="M468.378 41.4854H464.398V38.001H476.797V41.4854H472.817V53.7848H468.378V41.4854Z" fill="black"/>
<path d="M478.73 38.001H484.47L487.412 46.4117L490.364 38.001H496.005V53.7848H491.61V43.965L487.849 53.7848H486.384L482.666 43.965V53.7848H478.73V38.001Z" fill="black"/>
</g>
<defs>
<clipPath id="clip0_3300_22856">
<rect width="500" height="180" fill="white"/>
</clipPath>
</defs>
</svg>
