<svg width="500" height="180" viewBox="0 0 500 180" fill="none" xmlns="http://www.w3.org/2000/svg">
<g clip-path="url(#clip0_3300_22821)">
<path d="M165.036 1.06071H142.198C138.255 0.722795 134.322 1.80322 131.105 4.10754C129.856 5.36788 128.897 6.88504 128.295 8.5535C127.692 10.222 127.46 12.0017 127.615 13.7689C127.484 15.4204 127.711 17.0808 128.282 18.6361C128.853 20.1914 129.754 21.6047 130.922 22.7791C133.955 24.9176 137.639 25.9307 141.339 25.6437H151.755C153.428 25.4943 155.105 25.8771 156.547 26.7374C157.052 27.2315 157.431 27.8391 157.653 28.5096C157.875 29.18 157.933 29.8939 157.823 30.5915C157.89 31.2714 157.784 31.9571 157.515 32.5853C157.247 33.2134 156.824 33.7637 156.286 34.1852C154.693 35.0467 152.884 35.4266 151.078 35.2789H129.177V42.5705H152.615C156.525 42.9046 160.427 41.8437 163.63 39.5758C164.878 38.363 165.84 36.8881 166.448 35.2578C167.056 33.6275 167.295 31.8824 167.146 30.1488C167.31 28.5126 167.123 26.8602 166.597 25.3019C166.072 23.7437 165.22 22.3154 164.099 21.1125C161.113 19.0602 157.495 18.1371 153.891 18.5084H142.198C140.732 18.6034 139.276 18.2096 138.058 17.3886C137.583 16.9624 137.212 16.4336 136.973 15.8424C136.734 15.2513 136.633 14.6133 136.677 13.9772C136.6 13.1897 136.713 12.3951 137.008 11.6607C137.302 10.9263 137.77 10.2738 138.37 9.7585C139.871 8.77166 141.658 8.31347 143.448 8.45644H165.036V1.06071Z" fill="black"/>
<path d="M220.764 8.30002V1.06055H206.286C199.602 1.06055 194.671 2.79663 191.494 6.2688C188.317 9.75833 186.702 15.201 186.702 22.5446C186.625 25.8721 187.173 29.1845 188.317 32.3101C189.292 34.8978 190.937 37.1803 193.083 38.9246C194.614 40.1993 196.385 41.1554 198.291 41.737C200.841 42.3887 203.473 42.6694 206.103 42.5703H220.843V35.3569H206.52C205.16 35.4891 203.788 35.3449 202.486 34.9332C201.184 34.5215 199.978 33.8507 198.942 32.9611C197.218 30.7403 196.399 27.9489 196.65 25.1487H220.843V17.9613H196.624C196.561 15.3003 197.489 12.7108 199.228 10.6958C200.207 9.84816 201.343 9.2024 202.572 8.7957C203.801 8.389 205.099 8.22939 206.39 8.32606L220.764 8.30002Z" fill="black"/>
<path d="M253.286 42.5703H263.937L271.75 11.5812L280.63 42.5703H291.333L304.067 1.06055H295.109L286.15 32.9611L276.854 1.06055H266.437L258.442 32.9611L248.963 1.06055H239.484L253.286 42.5703Z" fill="black"/>
<path d="M355.318 8.30002V1.06055H340.813C334.147 1.06055 329.199 2.80531 326.022 6.2688C322.845 9.73229 321.256 15.1749 321.256 22.5186C321.185 25.8434 321.723 29.1533 322.845 32.284C323.827 34.8747 325.481 37.1575 327.636 38.8985C329.168 40.1732 330.939 41.1294 332.845 41.711C335.395 42.3659 338.026 42.6466 340.657 42.5443H355.396V35.3569H341.074C339.714 35.4891 338.342 35.3449 337.04 34.9332C335.738 34.5215 334.532 33.8507 333.496 32.9611C331.76 30.7464 330.94 27.9502 331.204 25.1487H355.396V17.9613H331.256C331.162 15.2954 332.094 12.6949 333.86 10.6958C334.838 9.84694 335.974 9.20041 337.204 8.79364C338.433 8.38687 339.731 8.22795 341.022 8.32606L355.318 8.30002Z" fill="black"/>
<path d="M405.994 11.216C407.772 14.4494 408.543 18.1402 408.208 21.8148C408.548 25.498 407.777 29.1986 405.994 32.4396C404.98 33.5136 403.729 34.3364 402.342 34.8426C400.954 35.3489 399.467 35.5248 398 35.3563H387.896V8.29937H398C399.468 8.12463 400.956 8.29756 402.345 8.80422C403.734 9.31087 404.984 10.137 405.994 11.216V11.216ZM379.172 42.5697H398.416C401.047 42.6705 403.679 42.3899 406.229 41.7364C408.135 41.1548 409.905 40.1986 411.437 38.9239C413.603 37.1927 415.259 34.9068 416.229 32.3094C417.363 29.182 417.902 25.8697 417.817 22.5439C417.817 15.2003 416.229 9.78372 413.052 6.29419C409.875 2.80466 404.927 1.08594 398.26 1.08594H379.172V42.5697Z" fill="black"/>
<path d="M450.003 24.2373V42.4662H458.753V24.2373L474.768 1.06055H464.638L454.222 16.9197L443.987 1.06055H434.17L450.003 24.2373Z" fill="black"/>
<path d="M60.3989 8.30002V1.06055H45.321C38.3767 1.06055 33.2552 2.79663 29.9567 6.2688C26.6581 9.74097 25.0088 15.1662 25.0088 22.5446C24.9212 25.8774 25.4874 29.195 26.6755 32.3101C27.6935 34.9233 29.404 37.2099 31.6233 38.9246C33.2485 40.2048 35.1053 41.1598 37.092 41.737C39.6975 42.3784 42.3788 42.6588 45.0606 42.5703H60.3989V35.3569H45.5033C42.6854 35.6172 39.8784 34.7564 37.6909 32.9611C35.9056 30.7682 35.0461 27.9655 35.2951 25.1487H60.451V17.9613H35.4253C35.3243 15.2865 36.2568 12.6754 38.0295 10.6698C40.1037 8.9496 42.7639 8.1002 45.4512 8.30002H60.3989Z" fill="black"/>
<path d="M108.631 42.5703V35.7996H97.9283C96.1706 35.8574 94.4143 35.6466 92.7201 35.1746C91.4964 34.7733 90.4064 34.0437 89.5691 33.0653C88.9811 32.3893 88.5775 31.5731 88.3972 30.6955C88.1223 28.9738 88.0089 27.2301 88.0587 25.4873V1.06055H79.0224V25.7477C78.9296 28.3212 79.2282 30.8939 79.9078 33.3778C80.5087 35.2126 81.5452 36.8746 82.9285 38.2214C84.36 39.7609 86.1488 40.9236 88.1368 41.6068C91.0588 42.3694 94.0777 42.6941 97.095 42.5703H108.631Z" fill="black"/>
<path fill-rule="evenodd" clip-rule="evenodd" d="M475.969 60.5137V67.05H25.6113V60.5137H475.969Z" fill="black"/>
<path d="M60.1941 88.2727V81.0332H45.6891C38.9878 81.0332 34.0574 82.7693 30.8977 86.2415C27.6165 89.7831 26.1321 95.1736 26.1321 102.517C26.0138 105.836 26.5173 109.149 27.6165 112.283C28.5865 114.88 30.2424 117.166 32.4081 118.897C33.9417 120.169 35.7118 121.125 37.6163 121.71C40.1669 122.361 42.7981 122.642 45.4287 122.543H60.1941V115.33H45.8454C43.1056 115.571 40.3814 114.719 38.2674 112.96C36.5549 110.733 35.7375 107.946 35.9757 105.147H60.1941V97.934H36.0278C35.9595 95.2722 36.8883 92.6809 38.6319 90.6685C39.6115 89.8047 40.7552 89.1473 41.9946 88.7357C43.234 88.3241 44.5437 88.1666 45.8454 88.2727H60.1941Z" fill="black"/>
<path d="M119.619 122.543V115.668H109.359C107.669 115.728 105.981 115.517 104.359 115.043C103.169 114.645 102.114 113.924 101.312 112.96C100.731 112.276 100.344 111.449 100.192 110.564C99.9174 108.842 99.804 107.099 99.8538 105.356V81.0332H91.1299V105.72C91.0442 108.292 91.3337 110.862 91.9893 113.35C92.5617 115.168 93.5516 116.827 94.8799 118.194C96.2997 119.747 98.0924 120.912 100.088 121.579C102.894 122.343 105.802 122.668 108.708 122.543H119.619Z" fill="black"/>
<path d="M180.005 88.2727V81.0332H165.631C158.964 81.0332 154.034 82.7693 150.839 86.2415C147.662 89.757 146.074 95.1476 146.074 102.491C145.996 105.819 146.544 109.131 147.688 112.257C148.649 114.852 150.296 117.138 152.454 118.871C153.985 120.146 155.756 121.102 157.662 121.684C160.212 122.337 162.844 122.618 165.474 122.517H180.214V115.33H165.631C164.273 115.459 162.904 115.316 161.602 114.91C160.301 114.503 159.094 113.84 158.053 112.96C156.329 110.739 155.51 107.948 155.761 105.147H179.953V97.934H155.865C155.794 95.2718 156.723 92.6796 158.469 90.6685C159.446 89.8162 160.581 89.1657 161.81 88.7545C163.039 88.3433 164.338 88.1795 165.631 88.2727H180.005Z" fill="black"/>
<path d="M243.421 88.1164V81.0332H228.89C222.223 81.0332 217.275 82.778 214.098 86.2415C210.921 89.7049 209.333 95.1476 209.333 102.491C209.248 105.817 209.787 109.129 210.921 112.257C211.891 114.854 213.547 117.14 215.713 118.871C217.245 120.146 219.015 121.102 220.921 121.684C223.472 122.337 226.103 122.618 228.734 122.517H243.499V115.33H229.072C227.643 115.467 226.201 115.286 224.85 114.8C223.499 114.314 222.273 113.534 221.26 112.517C219.477 109.646 218.673 106.274 218.968 102.908C218.66 98.98 219.492 95.0466 221.364 91.5799C222.266 90.3884 223.457 89.4456 224.823 88.8399C226.19 88.2341 227.687 87.9852 229.176 88.1164H243.421Z" fill="black"/>
<path d="M285.424 122.545H294.46V88.3264H307.923V81.0869H271.986V88.3264H285.424V122.545Z" fill="black"/>
<path d="M364.173 89.6013C364.757 90.0881 365.211 90.7109 365.498 91.4147C365.784 92.1186 365.892 92.8819 365.814 93.6377C365.893 94.4023 365.779 95.1744 365.484 95.884C365.188 96.5935 364.72 97.2178 364.121 97.7001C362.26 98.6576 360.166 99.0727 358.08 98.898H347.377V88.4815H358.08C360.176 88.2771 362.287 88.665 364.173 89.6013V89.6013ZM338.653 122.544H347.377V106.242H357.663L366.804 122.544H376.569L366.153 105.226C368.656 104.765 370.891 103.368 372.402 101.32C373.924 99.0068 374.68 96.2738 374.564 93.5075C374.709 91.7702 374.47 90.0223 373.862 88.3883C373.254 86.7543 372.294 85.2745 371.048 84.0545C367.847 81.7815 363.946 80.7117 360.033 81.0337H338.549L338.653 122.544Z" fill="black"/>
<path d="M411.074 81.0332H401.934V122.543H411.074V81.0332Z" fill="black"/>
<path d="M475.525 88.1164V81.0332H460.942C454.258 81.0332 449.327 82.7693 446.15 86.2415C442.947 89.757 441.359 95.1476 441.359 102.491C441.282 105.819 441.829 109.131 442.973 112.257C443.807 114.499 445.145 116.519 446.883 118.163C448.621 119.806 450.714 121.029 452.999 121.736C455.55 122.387 458.181 122.668 460.812 122.569H475.525V115.33H461.176C459.747 115.475 458.302 115.297 456.95 114.811C455.598 114.324 454.373 113.54 453.364 112.517C451.561 109.654 450.755 106.276 451.072 102.908C450.757 98.9826 451.58 95.0498 453.442 91.5799C454.349 90.3939 455.54 89.4552 456.906 88.85C458.271 88.2447 459.766 87.9925 461.254 88.1164H475.525Z" fill="black"/>
<path fill-rule="evenodd" clip-rule="evenodd" d="M251.573 165.042C198.136 165.042 148.267 160.277 106.08 149.418C143.944 168.818 195.193 180.251 251.573 180.251C307.952 180.251 359.227 168.818 397.065 149.313C354.904 160.277 305.035 165.042 251.573 165.042Z" fill="black"/>
</g>
<defs>
<clipPath id="clip0_3300_22821">
<rect width="500" height="180" fill="white"/>
</clipPath>
</defs>
</svg>
