<svg width="500" height="180" viewBox="0 0 500 180" fill="none" xmlns="http://www.w3.org/2000/svg">
<g clip-path="url(#clip0_3335_23759)">
<path d="M364.979 111.035C367.84 111.186 368.223 109.537 368.455 107.648C368.731 105.447 369.034 103.245 369.462 101.07C370.353 96.5694 373.214 93.4055 376.851 90.9099C379.783 88.8957 383.143 89.1274 386.28 90.1167C388.402 90.7673 389.177 92.9153 389.453 95.0989C389.738 97.3124 389.548 99.561 388.896 101.695C388.245 103.83 387.146 105.801 385.674 107.479C384.193 109.043 382.862 110.744 381.699 112.559C383.482 111.668 385.318 110.705 387.1 109.734C388.883 108.762 390.665 107.612 392.519 106.703C395.799 105.081 398.491 106.177 400.14 109.52C401.488 112.198 401.917 115.245 401.361 118.192C400.077 125.037 398.687 131.855 397.181 138.691C396.28 142.181 396.28 145.843 397.181 149.333C398.355 147.938 399.436 146.468 400.416 144.93C405.05 136.332 408.818 127.295 411.664 117.951C412.031 116.211 412.186 114.434 412.127 112.657C412.662 100.648 413.179 88.6431 413.678 76.6407C413.74 75.0364 413.678 73.4321 413.678 71.1326C403.99 74.0114 394.863 76.7566 385.728 79.4393C383.615 80.0543 381.432 80.6425 379.213 79.3056C379.4 75.9811 382.287 75.3216 384.4 74.5819C390.523 72.425 396.797 70.687 403.045 68.8866C405.888 68.0756 408.785 67.4427 411.682 66.8634C413.892 66.4267 414.97 65.3126 415.175 62.9953C415.701 56.9347 416.494 50.9008 417.011 44.8402C417.08 43.5832 417.403 42.3533 417.963 41.2255C418.522 40.0977 419.305 39.0956 420.264 38.2804C421.895 36.8455 423.33 36.9524 425.015 38.2269C426.103 39.0146 426.97 40.0702 427.531 41.2913C428.091 42.5124 428.327 43.8577 428.215 45.1967C428.027 49.9471 427.778 54.6887 427.537 59.457C427.484 60.6067 427.395 61.7475 427.297 63.1201C429.25 63.2326 431.208 63.2326 433.161 63.1201C436.806 62.6745 440.407 61.7743 444.061 61.498C446.949 61.2841 448.063 59.8581 448.954 57.309C450.546 52.7012 452.397 48.1871 454.498 43.7885C456.129 40.4145 458.897 37.7228 462.315 36.1859C463.03 35.8105 463.837 35.6425 464.643 35.7007C465.449 35.759 466.223 36.0413 466.878 36.5157C470.443 38.6637 471.824 42.0861 472.003 45.8829C472.321 50.6212 472.22 55.3783 471.7 60.0987C469.876 73.4828 466.22 86.5525 460.835 98.9403C458.839 103.557 457.136 108.299 455.345 113.004C454.282 115.879 454.148 119.015 454.962 121.971C456.04 118.593 456.628 116.142 457.635 113.833C459.908 108.379 462.181 102.906 464.766 97.6212C465.878 95.713 467.4 94.0753 469.222 92.8261C471.414 91.1862 473.01 91.4001 474.57 93.5837C475.835 95.3663 477.136 97.434 477.341 99.4929C478.098 105.665 478.375 111.887 478.17 118.103C477.686 125.95 477.984 133.826 479.062 141.614C479.293 143.281 480.158 144.858 480.737 146.481C483.197 146.347 484.017 144.858 484.677 143.424C486.094 140.34 487.439 137.185 488.634 134.038C490.728 128.504 492.573 122.88 494.775 117.398C495.523 115.536 495.666 112.639 498.776 112.862C500.345 112.969 500.309 114.867 499.169 118.753C497.636 124.012 496.495 129.404 494.846 134.609C493.268 139.52 491.281 144.288 489.338 149.083C488.732 150.608 487.743 151.95 486.465 152.979C485.188 154.008 483.666 154.69 482.047 154.957C479.801 155.295 476.923 153.878 474.864 152.47C470.746 149.627 469.266 144.957 468.001 140.349C465.799 132.327 466.218 124.181 466.726 116.017C466.949 112.532 467.734 109.021 466.397 104.832C465.054 106.553 464.107 108.549 463.625 110.678C461.2 118.914 458.714 127.149 456.735 135.5C455.585 140.384 455.363 145.482 454.685 150.473C454.489 151.935 454.516 153.584 453.794 154.76C453.427 155.356 452.941 155.87 452.365 156.269C451.79 156.668 451.139 156.943 450.452 157.078C449.561 157.158 447.974 155.821 447.6 154.787C446.581 151.701 445.727 148.562 445.042 145.384C444.543 143.299 444.151 141.169 443.616 138.352C440.38 142.809 437.778 146.721 434.899 150.375C433.35 152.348 431.553 154.113 429.551 155.625C423.838 159.894 418.01 157.96 415.291 151.356C413.402 146.784 413.74 142.033 413.402 137.318C413.295 135.741 413.402 134.136 413.402 132.55L412.448 132.22C411.771 133.557 411.04 134.894 410.443 136.231C408.491 140.687 406.878 145.349 404.551 149.6C403.103 152.015 401.117 154.065 398.749 155.589C394.658 158.343 390.095 156.891 387.608 152.488C386.09 149.758 385.261 146.698 385.193 143.575C384.949 135.991 385.936 128.418 388.116 121.151C388.473 119.939 388.651 118.673 389.008 117.122C385.389 118.263 382.198 120.188 379.204 119.965C376.209 119.742 373.161 117.39 369.4 115.607C365.416 115.865 363.901 119.172 363.098 123.459C361.396 132.47 357.902 140.794 351.993 147.835C349.658 150.616 346.797 153.557 343.553 154.832C335.986 157.809 330.112 156.133 327.599 147.586C326.327 142.988 326.05 138.172 326.788 133.459C327.038 131.677 327.091 129.377 326.235 127.907C322.118 120.883 322.911 113.575 324.676 106.293C326.041 100.453 329.296 95.2272 333.936 91.4268C337.439 88.5569 341.405 86.3199 345.977 86.7388C348.319 86.9149 350.597 87.582 352.664 88.6969C354.731 89.8117 356.54 91.3492 357.974 93.2094C360.647 96.6586 362.688 100.34 363.321 104.742C363.756 106.869 364.31 108.97 364.979 111.035ZM426.601 69.9651C426.512 71.5961 426.396 73.343 426.316 75.0988C426.084 80.286 425.951 85.4821 425.612 90.6603C424.436 108.726 423.74 126.801 424.48 144.903C424.695 146.152 425.017 147.381 425.443 148.575C427.715 146.169 429.694 144.564 431.031 142.541C433.945 138.085 436.281 133.263 439.338 128.931C442.609 124.288 443.25 119.377 443.09 113.869C442.584 99.6292 443.428 85.3735 445.612 71.2931C445.88 69.6264 446.227 67.9775 446.726 65.277C439.855 68.3162 432.84 66.2841 426.601 69.9651ZM333.758 109.778C339.248 113.343 335.603 118.967 336.895 123.807C338.678 123.566 340.46 123.726 341.824 123.067C346.182 120.964 350.425 118.611 354.622 116.195C355.042 115.928 355.397 115.57 355.659 115.147C355.922 114.725 356.085 114.248 356.138 113.753C355.879 108.539 354.97 103.432 351.53 99.2611C348.089 95.09 344.007 94.9295 340.041 98.6372C336.833 101.676 335.121 105.571 333.758 109.778ZM354.925 124.119C348.446 127.844 342.287 131.775 334.979 132.889C334.979 136.953 334.649 140.669 335.068 144.297C335.531 148.343 338.553 149.547 341.708 146.971C343.956 145.069 345.97 142.905 347.706 140.527C351.468 135.773 353.953 130.138 354.925 124.154V124.119ZM455.122 95.598C457.154 89.8493 459.204 84.9027 460.63 79.7423C462.056 74.5818 464.017 69.6174 464.195 64.359H456.807C454.284 76.0702 453.339 90.8297 455.122 95.6603V95.598ZM457.502 60.072C459.632 60.072 461.227 60.072 462.849 60.072C464.471 60.072 465.586 59.4124 465.63 57.8616C465.755 53.4647 465.755 49.0707 465.63 44.6797C465.63 43.9756 464.739 43.2983 463.963 42.2198C460.095 47.6299 458.393 53.2537 457.502 60.1343V60.072ZM383.99 95.9456C381.378 94.8404 380.3 96.6675 379.444 98.0133C377.662 100.812 376.013 103.78 377.421 107.389C382.1 105.616 384.15 102.015 383.99 96.008V95.9456Z" fill="black"/>
<path d="M113.454 79.3144C114.123 75.7493 117.019 75.0541 119.363 74.3322C127.973 71.6584 136.672 69.3054 145.371 66.9703C148.811 66.079 149.185 65.8028 149.542 62.3001C150.136 56.3999 150.769 50.4996 151.44 44.5994C151.471 43.5619 151.688 42.5384 152.082 41.578C153.205 39.5014 154.408 37.2732 157.207 37.2197C159.221 37.2197 161.895 40.0807 162.314 42.7278C162.55 44.3414 162.622 45.9749 162.528 47.603C162.305 52.0594 161.957 56.5157 161.699 60.9721C161.706 61.7746 161.769 62.5756 161.886 63.3696C163.546 63.4234 165.208 63.3249 166.85 63.0755C172.643 61.6316 178.633 62.0505 184.408 61.1503C189.672 60.4707 194.975 60.1491 200.282 60.1877C202.064 60.1877 203.972 60.0719 204.087 62.9774C201.182 64.2698 198.062 63.8687 195.068 64.1985C191.743 64.5817 188.419 64.9917 185.13 65.5888C181.841 66.186 178.597 65.1789 175.594 67.0951C174.836 67.5853 173.57 67.2734 172.537 67.3357C168.704 67.5764 164.818 67.5942 161.03 70.0096C160.068 95.6068 157.465 121.418 159.087 148.441C161.084 146.882 162.581 146.169 163.41 144.983C166.547 140.527 169.702 136.008 172.394 131.258C175.38 125.99 177.848 120.447 180.558 115.028C180.905 114.048 181.431 113.142 182.109 112.354C182.466 112.028 182.892 111.787 183.354 111.647C183.817 111.506 184.305 111.471 184.783 111.543C185.176 111.811 185.494 112.175 185.706 112.601C185.918 113.027 186.018 113.501 185.995 113.976C185.359 116.562 184.558 119.104 183.597 121.587C180.923 128.922 179.016 136.614 174.604 143.227C171.476 147.915 168.285 152.577 163.535 155.857C158.374 159.422 152.501 157.711 149.943 152.015C147.795 147.238 148.044 142.211 147.786 137.14C147.697 135.571 147.786 133.994 147.786 132.425L146.788 132.14C146.146 133.361 145.424 134.537 144.88 135.794C142.955 140.251 141.413 144.948 139.078 149.163C137.574 151.709 135.503 153.874 133.026 155.491C129.051 158.165 124.604 156.828 122.162 152.639C120.581 149.926 119.696 146.864 119.586 143.727C119.304 136.172 120.24 128.621 122.358 121.365C122.741 120.019 122.991 118.628 123.365 116.988C119.631 118.156 116.404 120.099 113.347 119.867C110.29 119.635 107.322 117.247 103.757 115.536C99.693 115.99 98.1333 119.208 97.3222 123.495C95.7501 132.594 91.8023 141.117 85.8783 148.201C83.6145 150.874 80.8159 153.655 77.6786 154.805C70.0316 157.612 64.5235 156.026 61.921 147.773C60.5131 143.356 60.2071 138.663 61.0297 134.101C61.5146 131.334 61.0795 128.486 59.7909 125.99C58.5418 123.177 57.8371 120.153 57.7142 117.078C57.3309 107.122 60.3078 98.3609 67.9816 91.5783C71.6269 88.3786 75.8783 85.9811 80.8159 86.7209C85.3703 87.4071 89.5682 89.3947 92.4559 93.3698C94.9247 96.7477 97.0014 100.259 97.6609 104.511C98.1042 106.678 98.6635 108.82 99.3365 110.928C102.01 111.48 102.554 109.858 102.848 107.995C103.24 105.509 103.41 102.978 103.98 100.544C105.032 96.0881 108.026 92.9687 111.752 90.6425C114.426 88.9936 117.527 89.2788 120.415 90.0542C122.634 90.6514 123.481 92.728 123.793 94.8671C124.136 97.1496 123.971 99.4798 123.308 101.691C122.646 103.902 121.502 105.939 119.96 107.657C118.48 109.19 117.177 110.886 116.075 112.71C119.488 110.848 122.866 108.922 126.315 107.131C130.415 105.01 132.866 106.035 134.773 110.152C136.449 113.771 136.057 117.452 135.388 121.079C134.319 126.908 132.848 132.666 131.707 138.477C131.164 141.231 130.914 144.056 130.647 146.855C130.593 147.488 131.03 148.165 131.538 149.76C133.231 147.087 134.604 145.206 135.691 143.174C139.818 135.3 143.219 127.066 145.852 118.575C146.301 116.705 146.507 114.785 146.467 112.862C147.019 100.853 147.542 88.845 148.035 76.8367C148.098 75.2235 148.035 73.6103 148.035 71.6317C138.922 73.5097 129.94 75.9778 121.146 79.0203C118.641 79.8759 116.137 80.6691 113.454 79.3144ZM70.8783 123.406C71.4241 123.546 71.9823 123.632 72.5449 123.664C79.1403 123.076 84.1314 118.896 89.586 115.83C89.9178 115.546 90.1809 115.191 90.3554 114.792C90.5299 114.392 90.6112 113.957 90.5931 113.521C90.2277 108.628 89.5236 103.717 86.3151 99.7958C82.75 95.4642 78.864 94.359 74.2651 98.9045C71.2348 101.864 69.577 105.634 68.1064 109.698C73.1242 113.236 70.6287 118.441 70.8783 123.406V123.406ZM69.2472 132.8C69.2472 136.668 68.962 140.233 69.3185 143.718C69.8176 148.539 72.8836 149.653 76.6982 146.677C77.4036 146.142 78.0598 145.545 78.659 144.894C82.4363 140.733 85.5072 135.982 87.75 130.83C88.5452 128.717 89.2265 126.563 89.791 124.377L89.0602 123.771C82.9728 127.603 77.0815 131.801 69.2472 132.8ZM111.734 107.496C116.877 105.215 119.141 100.865 117.973 95.9099C113.463 96.3288 110.932 100.865 111.734 107.496Z" fill="black"/>
<path d="M305.452 26.8905C306.922 27.4938 308.237 28.4222 309.298 29.6061C310.358 30.79 311.137 32.1988 311.575 33.7266C315.012 43.6853 317.583 53.9225 319.258 64.3239C321.201 75.7274 322.096 87.2849 321.931 98.8517C321.548 113.87 319.828 128.736 313.776 142.738C311.771 147.399 309.266 151.793 305.309 155.091C295.764 163.059 287.395 162.346 278.161 154.841C272.528 150.269 269.944 143.745 267.662 137.123C266.771 134.618 266.111 132.06 265.122 128.798C264.052 130.126 263.232 131.035 262.528 132.034C259.257 136.65 255.817 140.946 250.407 143.424C244.64 146.027 239.186 145.465 233.963 142.346C227.377 138.406 223.589 132.256 221.824 124.975C217.43 106.864 217.902 88.504 219.569 70.1261C220.255 62.5948 220.879 55.0458 221.922 47.568C222.911 40.5359 224.311 33.5573 225.772 26.5964C226.246 24.7269 227.129 22.9858 228.357 21.4984C230.558 18.6641 233.232 19.1276 234.186 22.6303C234.918 25.3534 235.218 28.1743 235.077 30.9904C234.765 36.4628 233.785 41.8906 233.473 47.363C232.962 56.0975 232.638 64.8438 232.501 73.602C232.288 79.389 232.419 85.1836 232.893 90.955C233.785 100.082 235.104 109.19 236.628 118.237C237.181 121.517 238.678 124.69 240.042 127.773C242.439 133.219 245.603 133.834 249.935 129.654C251.877 127.818 253.551 125.717 254.908 123.415C259.446 115.762 262.556 107.349 264.088 98.5843C264.345 96.5254 264.948 94.5247 265.87 92.6663C266.69 91.3231 267.95 90.3058 269.436 89.7875C270.305 89.5052 271.249 89.5737 272.069 89.9783C272.888 90.3829 273.517 91.0916 273.821 91.9533C274.906 94.2186 275.754 96.5901 276.352 99.0299C277.243 103.379 277.822 107.8 278.446 112.203C279.623 120.581 280.639 128.994 283.687 136.962C285.06 140.527 286.619 144.093 289.864 146.499C290.457 147.058 291.228 147.391 292.042 147.442C292.856 147.492 293.662 147.257 294.32 146.775C297.413 144.939 299.275 142.114 300.889 139.119C305.247 131 307.012 122.105 307.867 113.085C308.751 104.83 309.147 96.5297 309.053 88.2278C308.839 79.3151 307.796 70.4826 306.726 61.6501C305.568 52.0867 303.954 42.5858 302.555 33.0492C302.19 30.3309 302.591 28.0046 305.452 26.8905Z" fill="black"/>
<path d="M41.8236 75.2326C48.1249 73.655 53.6418 72.0597 59.2658 70.9456C63.9656 69.9738 68.8583 70.7402 73.0359 73.1024C74.2034 73.7531 75.7097 75.4019 75.5849 76.32C75.3564 77.0547 74.97 77.7306 74.4527 78.3003C73.9353 78.8699 73.2997 79.3196 72.5902 79.6176C68.8915 81.0347 65.0858 82.4964 61.1909 83.0223C55.7274 83.7531 50.4957 85.2415 45.2193 86.5873C40.6917 87.7282 41.1462 88.7442 41.2799 92.1667C41.5384 98.9849 41.9127 105.794 42.2692 112.604C42.394 115.126 42.5723 117.639 42.7773 120.153C43.2229 125.768 43.8022 131.365 44.1498 136.989C44.3994 141.124 44.4261 145.286 44.4261 149.466C44.4036 150.65 44.1619 151.82 43.7131 152.916C43.1338 154.36 42.8218 156.677 40.8789 156.329C39.6043 156.106 38.2051 154.502 37.5455 153.192C35.0232 148.379 34.3369 142.978 33.9804 137.711C32.9555 124.101 32.385 110.464 31.6453 96.8369C31.574 95.5179 31.6453 94.1631 31.6453 92.2202C30.2119 92.4 28.7959 92.6981 27.4118 93.1114C24.6577 94.1721 22.0642 95.5802 19.2745 96.6052C15.754 97.9243 13.303 97.3183 12.1443 95.1436C10.9857 92.9689 12.0284 89.8672 15.1033 88.0847C19.2995 85.5874 23.622 83.3086 28.0535 81.2576C30.7273 80.0454 31.6988 78.5838 31.6988 75.5445C31.6988 66.0704 32.18 56.5961 32.4831 46.5604C31.6364 46.5604 30.5847 46.2485 29.8093 46.5604C23.5704 49.5729 17.3761 52.6835 11.1996 55.8118C9.05162 56.8992 6.84126 58.1024 4.45266 57.2289C2.97629 56.6741 1.70872 55.6744 0.825182 54.3679C-0.253255 52.6834 1.10147 51.1148 2.40272 50.1968C5.65218 47.8897 9.01982 45.7537 12.4919 43.7975C18.5704 40.4285 24.7112 37.1575 30.959 34.1272C32.9733 33.1557 33.9626 31.9971 34.2211 29.8848C34.4439 28.1022 34.9252 26.391 35.2549 24.6441C35.656 22.5407 36.7166 21.0345 38.9804 20.8562C40.763 20.7047 42.3049 22.3714 42.8842 25.0006C43.0714 25.8919 43.1427 26.7208 43.3477 28.1913C44.7779 28.1017 46.1959 27.8719 47.5812 27.5051C60.6026 22.514 74.0697 21.7296 87.7686 22.9774C91.3444 23.3065 94.7105 24.8109 97.3408 27.2555C100.647 30.2324 100.22 32.7903 96.1911 34.4302C95.0083 34.9902 93.7277 35.3142 92.421 35.3839C87.8577 35.2591 83.2142 36.1682 78.7578 34.3857C78.0452 34.1651 77.2894 34.1223 76.5564 34.2609C66.0483 35.6602 55.46 36.6406 45.4422 40.5622C43.4368 41.3465 42.5812 42.3893 42.492 44.3947C42.0821 53.4321 41.6008 62.4696 41.2443 71.4981C41.3252 72.7578 41.5191 74.0076 41.8236 75.2326Z" fill="black"/>
</g>
<defs>
<clipPath id="clip0_3335_23759">
<rect width="499.53" height="141.124" fill="white" transform="translate(0.46875 19.6084)"/>
</clipPath>
</defs>
</svg>
