<svg width="500" height="180" viewBox="0 0 500 180" fill="none" xmlns="http://www.w3.org/2000/svg">
<path d="M32.3702 158.004C26.9229 154.986 22.0296 151.489 18.6661 146.295C15.5428 141.463 14.5475 136.386 17.0971 131.06C17.8963 129.392 17.0971 128.487 16.3469 127.357C6.88395 112.997 4.31963 97.4295 9.9729 81.2552C17.3275 60.1264 32.5517 47.9968 55.0226 45.5514C59.4795 45.0623 64.0394 45.5514 69.0209 45.5514C68.3786 46.9795 68.104 47.6496 67.7804 48.2903C55.0618 73.3906 42.2304 98.4322 29.7079 123.635C25.4569 132.189 24.0987 141.306 27.7172 150.535C28.5311 152.609 29.9677 154.448 31.1494 156.37C31.5272 156.936 31.9347 157.481 32.3702 158.004V158.004Z" fill="black"/>
<path d="M98.1453 62.4941C102.911 67.4424 106.482 73.4111 108.584 79.945C115.483 101.279 110.884 120.051 95.1152 135.922C89.3148 141.791 82.1318 145.62 74.2574 147.958C70.927 148.935 67.3475 148.597 64.26 147.014C60.7396 145.239 59.6854 139.918 61.8526 135.55C66.6527 125.886 71.5068 116.246 76.3069 106.581C83.5488 92.0011 90.7612 77.4066 98.1453 62.4941Z" fill="black"/>
<path d="M227.803 130.683C229.798 122.432 231.725 114.445 233.657 106.453C235.809 97.5026 237.933 88.5424 240.085 79.5969C241.134 75.244 244.287 72.554 248.768 72.5148C259.143 72.4317 269.523 72.3534 279.893 72.5148C289.239 72.6762 294.431 79.7094 292.234 88.7576C291.489 91.8194 290.852 94.9056 290.121 97.9673C288.351 105.353 286.606 112.738 284.757 120.099C283.105 126.697 278.452 130.859 271.146 130.741C257.668 130.487 244.179 130.668 230.705 130.668L227.803 130.683ZM245.395 117.409C253.73 117.409 261.727 117.438 269.724 117.345C270.097 117.264 270.444 117.092 270.734 116.846C271.025 116.599 271.251 116.285 271.391 115.932C273.647 106.932 275.804 97.9135 277.966 88.8897C278.535 86.4883 278.143 86.0383 275.637 86.0334C268.695 86.0334 261.755 86.0334 254.819 86.0334C254.191 86.0334 253.569 86.1361 252.946 86.1899C250.421 96.6223 247.945 106.888 245.395 117.409Z" fill="black"/>
<path d="M206.458 130.683C207.194 127.665 207.821 124.931 208.537 122.216C208.925 120.749 208.876 119.614 207.763 118.304C199.844 109.011 192.033 99.5812 183.983 89.9656C180.722 103.631 177.525 117.008 174.299 130.521H160.57C160.943 128.971 161.301 127.455 161.664 125.943C165.073 111.812 168.482 97.6835 171.892 83.5585C173.725 75.9873 179.016 72.0404 186.758 72.5392C187.667 72.6906 188.491 73.1648 189.077 73.8744C197.103 83.3042 205.071 92.7828 213.391 102.653C214.372 98.471 215.255 94.6903 216.122 90.9145C217.407 85.3241 218.643 79.724 220.011 74.1532C220.167 73.5125 220.991 72.5881 221.57 72.5686C225.556 72.4316 229.552 72.4952 234.014 72.4952C233.376 75.2879 232.822 77.841 232.209 80.3794C228.316 96.5586 224.365 112.723 220.555 128.912C220.212 130.35 219.682 130.746 218.299 130.717C214.46 130.614 210.641 130.683 206.458 130.683Z" fill="black"/>
<path d="M425.437 72.902H433.282C431.497 75.5039 428.717 72.6819 427.06 73.6111C427.217 75.0784 427.364 76.1055 427.423 77.1228C427.589 80.0574 427.717 82.992 427.864 85.9265H422.985L422.72 85.4032L422.456 85.9265H420.534L420.269 85.4032L420.004 85.9265C413.061 85.9608 406.123 86.0684 399.181 85.9852C396.881 85.9559 395.714 86.6797 395.42 89.0469C395.185 90.9495 394.552 92.8081 394.023 94.9797H417.298C416.317 99.313 415.474 103.348 414.415 107.319C414.287 107.809 413.003 108.244 412.247 108.259C405.829 108.391 399.406 108.498 392.988 108.435C391.252 108.435 390.439 108.924 390.193 110.611C390.022 111.814 389.703 112.998 389.433 114.181C388.825 116.749 389.306 117.38 392.037 117.395C395.876 117.395 399.715 117.395 403.554 117.395H424.211C423.181 121.674 422.25 125.68 421.196 129.622C421.078 130.067 420.146 130.6 419.587 130.6C408.232 130.644 396.876 130.757 385.526 130.561C378.725 130.444 373.194 123.528 374.651 116.818C377.171 105.231 379.897 93.6738 382.932 82.2143C384.246 77.25 388.168 72.5254 395.528 72.7259C405.334 72.9851 415.14 72.8433 424.947 72.8775L425.437 72.902Z" fill="black"/>
<path d="M341.593 72.9458C350.09 72.9458 358.588 72.7844 367.089 72.9458C372.208 73.0289 377.631 78.4578 377.337 83.564C377.102 87.7262 376.145 91.8786 375.028 95.938C374.047 99.4253 370.821 100.941 367.624 102.56C373.454 107.774 371.394 113.893 369.698 119.977C368.688 123.591 367.124 126.912 363.731 128.854C362.215 129.782 360.512 130.364 358.744 130.561C354.822 130.796 350.899 130.61 346.977 130.595C346.073 129.283 338.91 128.417 338.181 127C337.877 126.33 339.078 125.479 339.5 125C340.311 124.125 340.67 122.145 341 121C341.33 119.855 346.738 118.692 346.516 117.522C348.874 117.492 351.238 117.492 353.596 117.409C354.204 117.409 355.249 117.238 355.337 116.92C355.891 115.027 356.719 113.007 356.499 111.154C356.278 109.3 354.371 108.518 352.351 108.537C349.409 108.571 346.496 108.478 343.574 108.439C345.045 106.654 337.976 105.83 337 104.5C336.51 103.835 337.387 102.621 337.5 102C337.917 99.7697 337.059 98.3646 335.499 97C334.931 96.5109 338.612 95.625 338.181 94.9599C344.035 94.9305 349.889 94.8865 355.739 94.8718C360.563 94.8718 361.167 94.3827 362.368 89.6287C363.172 86.4301 362.824 85.9948 359.426 85.9703L343.579 85.8578C343.579 84.0091 339.966 82.0113 341.593 80.5C342.025 80.0989 339.961 78.9488 339.495 78C338.609 76.3985 342.651 74.4394 341.593 72.9458Z" fill="black"/>
<path d="M460.102 130.561H446.52C450.291 115.629 454.032 100.829 457.847 85.7352H438.754C439.808 81.2991 440.803 77.1418 441.813 72.9111H493.012C492.031 76.9853 491.099 80.9714 489.991 84.8988C489.869 85.3341 488.658 85.6814 487.947 85.6912C483.289 85.7645 478.631 85.8526 473.978 85.6912C471.909 85.6129 471.119 86.3563 470.658 88.2491C467.422 101.572 464.103 114.88 460.803 128.193C460.592 128.947 460.347 129.714 460.102 130.561Z" fill="black"/>
<path d="M346.497 117.497C346.719 118.668 346.663 119.874 346.334 121.019C346.004 122.164 345.41 123.216 344.599 124.09C344.177 124.579 344.202 125.802 344.506 126.472C345.235 127.889 346.054 129.258 346.957 130.571H312.852C313.685 126.907 314.445 123.44 315.269 119.987C318.181 107.818 321.054 95.6397 324.065 83.4955C325.305 78.5019 327.884 74.3153 333.278 73.1219C335.926 72.5399 338.799 72.9703 341.569 72.9458C342.625 74.438 343.598 75.9876 344.481 77.5873C344.972 78.5362 345.462 80.3067 345.021 80.7077C343.373 82.219 343.52 84.0042 343.55 85.853C342.251 85.8823 340.892 85.6867 339.671 86.0144C338.735 86.2589 337.519 86.9926 337.22 87.8045C336.435 89.976 336.082 92.2992 335.523 94.7056L338.147 94.955C338.578 95.6104 338.892 96.4223 339.461 96.9114C341.02 98.276 341.966 99.7335 341.549 101.964C341.437 102.585 342.226 103.431 342.711 104.096C343.692 105.427 345.031 106.649 343.54 108.434H343.05H332.768C331.851 111.315 330.929 114.201 329.865 117.517L346.497 117.497Z" fill="black"/>
<path d="M111.207 39.3106C111.168 54.7023 99.8612 64.2543 87.1524 62.1072C86.704 62.0138 86.281 61.8253 85.9121 61.5544C85.5432 61.2835 85.2371 60.9366 85.0146 60.5372C82.0728 53.0541 81.0627 45.4242 84.2742 37.7699C87.0935 31.0595 92.4428 26.7311 98.7433 23.5128C99.4052 23.1753 100.788 23.7427 101.592 24.266C107.961 28.394 111.03 34.356 111.207 39.3106Z" fill="black"/>
<path d="M154.04 130.615H140.258C142.366 121.914 144.44 113.316 146.534 104.723C148.284 97.5133 149.99 90.2943 151.839 83.1095C153.746 75.7144 159.684 71.2294 167.843 72.9021C163.253 92.0893 158.669 111.267 154.04 130.615Z" fill="black"/>
<path d="M316.337 72.7111C315.092 77.9101 313.885 82.9233 312.694 87.9316C309.429 101.577 306.173 115.228 302.834 128.854C302.662 129.558 301.77 130.581 301.182 130.605C297.117 130.757 293.042 130.683 288.703 130.683C289.87 125.822 290.963 121.161 292.106 116.5C294.816 105.462 297.538 94.4252 300.274 83.388C302.187 75.6065 307.761 71.7622 316.337 72.7111Z" fill="black"/>
<path d="M94.6889 21.7128C80.161 30.7317 76.2532 43.6145 80.9602 59.6372C74.0272 57.001 66.9324 45.8594 71.3648 34.2043C74.8656 25.1169 86.1428 18.8125 94.6889 21.7128Z" fill="black"/>
<path d="M427.888 85.9308C427.741 82.9962 427.614 80.0616 427.447 77.1271C427.388 76.1098 427.241 75.0973 427.084 73.6154C428.741 72.6861 431.497 75.5082 433.306 72.9062C434.576 72.3291 435.037 72.872 434.777 74.0849C433.958 77.7287 433.277 81.4213 432.144 84.977C431.443 87.0508 429.359 85.8281 427.888 85.9308Z" fill="black"/>
<path d="M420.043 85.9315L420.308 85.4082L420.572 85.9315H420.043Z" fill="black"/>
<path d="M422.494 85.9315L422.759 85.4082L423.024 85.9315H422.494Z" fill="black"/>
<path d="M333.258 108.415L333.032 108.459L332.807 108.415H333.258Z" fill="black"/>
<path d="M338.162 108.415L337.937 108.459L337.711 108.415H338.162Z" fill="black"/>
<path d="M343.064 108.415L342.839 108.459L342.613 108.415H343.064Z" fill="black"/>
</svg>
