<svg width="500" height="180" viewBox="0 0 500 180" fill="none" xmlns="http://www.w3.org/2000/svg">
<g clip-path="url(#clip0_3334_23744)">
<path d="M128.528 76.7705C127.71 59.6274 123.721 48.1907 115.478 39.4459C106.73 31.2036 95.2937 27.2251 78.1539 26.3934C73.3165 26.1625 69.4058 26.02 64.9622 25.9996C60.5185 25.9792 56.6045 26.1625 51.7704 26.3934C34.6273 27.2149 23.1906 31.2036 14.4289 39.4459C6.18658 48.1907 2.20801 59.6274 1.37971 76.7705C1.14887 81.608 1.00629 85.5186 0.985923 89.9623C0.965555 94.4059 1.14887 98.3166 1.37971 103.154C2.20122 120.297 6.18658 131.734 14.4289 140.496C23.177 148.738 34.6137 152.716 51.7704 153.548C56.6045 153.779 60.5185 153.922 64.9622 153.942C69.4058 153.962 73.3165 153.779 78.1539 153.548C95.2937 152.727 106.73 148.738 115.478 140.496C123.721 131.751 127.699 120.314 128.528 103.154C128.759 98.3166 128.904 94.4059 128.925 89.9623C128.945 85.5186 128.759 81.608 128.528 76.7705ZM60.1859 114.693H47.6764V84.4052H60.1859V114.693ZM81.7761 114.693H69.2666V83.4886C69.2666 81.3872 68.4319 79.372 66.946 77.8861C65.4601 76.4002 63.4448 75.5654 61.3435 75.5654H38.5991V114.693H26.0828V65.2999H66.4321C70.5019 65.3008 74.4047 66.9181 77.2821 69.7962C80.1596 72.6743 81.7761 76.5775 81.7761 80.6473V114.693ZM103.502 114.693H90.996V65.2999H103.505L103.502 114.693Z" fill="black"/>
<path d="M467.847 72.0965C464.985 69.3977 461.21 68.0806 455.531 67.7853C453.929 67.7004 452.632 67.6495 451.155 67.6359C449.678 67.6223 448.382 67.6766 446.773 67.7445C442.02 67.9448 438.561 68.8817 435.862 70.7522C435.737 70.8386 435.588 70.8849 435.436 70.8849C435.284 70.8849 435.135 70.8386 435.01 70.7522C432.294 68.8817 428.866 67.9448 424.096 67.7445C422.49 67.6766 421.19 67.6359 419.713 67.6359C418.237 67.6359 416.943 67.7004 415.338 67.7853C409.658 68.0806 405.887 69.3977 403.025 72.0965C400.34 74.9514 399.074 78.6652 398.873 84.202C398.819 85.7567 398.789 87.0161 398.799 88.4453V117.147C398.799 117.249 398.839 117.347 398.911 117.42C398.983 117.492 399.08 117.533 399.182 117.534H410.32C410.371 117.534 410.422 117.524 410.468 117.505C410.515 117.485 410.558 117.457 410.594 117.421C410.63 117.385 410.658 117.342 410.678 117.295C410.697 117.249 410.707 117.198 410.707 117.147V85.8382C410.707 85.217 410.707 84.6704 410.741 83.9949C410.83 81.588 411.397 79.9756 412.602 78.7331C413.881 77.5619 415.572 76.9882 418.115 76.8592C418.834 76.8219 419.415 76.8015 420.077 76.7947C420.739 76.788 421.319 76.7947 422.039 76.8423C424.592 76.9475 426.299 77.5212 427.599 78.672C428.825 79.9077 429.412 81.5235 429.528 83.944C429.558 84.6229 429.578 85.1728 429.578 85.7941V117.147C429.578 117.249 429.619 117.347 429.691 117.42C429.762 117.492 429.86 117.533 429.962 117.534H440.907C441.009 117.534 441.108 117.494 441.18 117.421C441.253 117.348 441.294 117.25 441.294 117.147V85.7941C441.294 85.1728 441.294 84.6229 441.344 83.944C441.456 81.5235 442.044 79.9077 443.269 78.672C444.573 77.5076 446.277 76.9475 448.83 76.8423C449.549 76.8117 450.133 76.7947 450.792 76.7947C451.45 76.7947 452.034 76.8219 452.754 76.8592C455.297 76.9882 456.987 77.5619 458.27 78.7331C459.472 79.9756 460.039 81.588 460.131 83.9949C460.154 84.6738 460.168 85.217 460.161 85.8382V117.147C460.161 117.25 460.202 117.348 460.275 117.421C460.347 117.494 460.446 117.534 460.548 117.534H471.693C471.744 117.534 471.794 117.524 471.841 117.505C471.887 117.485 471.93 117.457 471.965 117.421C472.001 117.385 472.029 117.342 472.048 117.295C472.067 117.248 472.077 117.198 472.077 117.147V88.4453C472.077 87.0161 472.077 85.7567 472.002 84.202C471.798 78.6652 470.532 74.9514 467.847 72.0965Z" fill="black"/>
<path d="M378.761 72.9314C375.261 69.642 370.681 68.0635 363.824 67.7681C361.889 67.6833 360.324 67.6357 358.549 67.6357C356.773 67.6357 355.212 67.7172 353.28 67.819C346.447 68.1789 341.905 69.7982 338.459 73.1046C335.227 76.6045 333.707 81.1568 333.466 87.9427C333.398 89.8539 333.36 91.3951 333.374 93.1468C333.387 94.8985 333.482 96.4329 333.598 98.3305C334.005 105.042 335.635 109.502 338.897 112.907C342.363 116.108 346.864 117.66 353.596 117.972C355.494 118.064 357.031 118.118 358.78 118.125C360.528 118.132 362.066 118.064 363.967 117.972C370.719 117.653 375.23 116.102 378.69 112.88C381.959 109.458 383.554 104.974 383.9 98.2287C384.002 96.3208 384.063 94.7762 384.077 93.0178C384.09 91.2594 384.026 89.708 383.938 87.79C383.632 80.9769 382.05 76.411 378.761 72.9314ZM373.02 96.2937C372.823 100.591 371.917 103.446 370.06 105.629C368.095 107.666 365.535 108.667 361.699 108.868C360.62 108.925 359.744 108.963 358.753 108.966C357.761 108.969 356.889 108.925 355.809 108.868C351.984 108.667 349.427 107.679 347.462 105.639C345.602 103.473 344.682 100.629 344.451 96.3548C344.383 95.1429 344.342 94.1652 344.325 93.0484C344.308 91.9315 344.325 90.9504 344.376 89.7351C344.512 85.4103 345.394 82.5113 347.211 80.2809C349.169 78.1728 351.746 77.1408 355.629 76.91C356.726 76.8455 357.612 76.8048 358.62 76.7946C359.628 76.7844 360.518 76.8252 361.618 76.8795C365.515 77.0662 368.115 78.0744 370.104 80.1689C371.975 82.3924 372.874 85.2983 373.044 89.6401C373.095 90.8656 373.122 91.85 373.126 92.9737C373.129 94.0973 373.078 95.0818 373.02 96.2937V96.2937Z" fill="black"/>
<path d="M230.053 68.057H216.172C216.06 68.0572 215.949 68.0818 215.847 68.1293C215.745 68.1768 215.654 68.246 215.582 68.332L202.682 84.4398C202.646 84.4851 202.6 84.5216 202.547 84.5467C202.495 84.5719 202.438 84.5849 202.38 84.5849C202.322 84.5849 202.265 84.5719 202.212 84.5467C202.16 84.5216 202.114 84.4851 202.078 84.4398L189.857 68.332C189.784 68.246 189.694 68.1768 189.592 68.1293C189.49 68.0818 189.379 68.0572 189.266 68.057H175.399C175.326 68.0571 175.255 68.0778 175.194 68.1168C175.132 68.1559 175.083 68.2115 175.052 68.2774C175.021 68.3432 175.01 68.4165 175.019 68.4887C175.028 68.5608 175.057 68.629 175.104 68.685L194.65 92.2747C194.708 92.3437 194.74 92.4308 194.74 92.5208C194.74 92.6108 194.708 92.6979 194.65 92.7669L175.443 116.625C175.397 116.681 175.368 116.749 175.359 116.822C175.35 116.894 175.362 116.967 175.393 117.033C175.423 117.099 175.472 117.155 175.533 117.194C175.595 117.234 175.666 117.255 175.738 117.256H189.619C189.732 117.256 189.844 117.231 189.946 117.183C190.048 117.135 190.138 117.065 190.21 116.978L202.431 101.291C202.467 101.245 202.513 101.208 202.566 101.182C202.618 101.157 202.676 101.144 202.735 101.144C202.793 101.144 202.851 101.157 202.903 101.182C202.956 101.208 203.002 101.245 203.038 101.291L215.259 116.978C215.331 117.065 215.421 117.135 215.524 117.183C215.626 117.231 215.737 117.256 215.85 117.256H229.731C229.804 117.255 229.875 117.234 229.936 117.194C229.997 117.155 230.046 117.099 230.077 117.033C230.108 116.967 230.119 116.894 230.11 116.822C230.101 116.749 230.072 116.681 230.026 116.625L210.816 92.7669C210.76 92.6971 210.729 92.6103 210.729 92.5208C210.729 92.4313 210.76 92.3445 210.816 92.2747L230.366 68.685C230.413 68.6278 230.443 68.5582 230.451 68.4844C230.46 68.4106 230.447 68.3359 230.414 68.2694C230.381 68.2029 230.329 68.1475 230.265 68.1097C230.201 68.072 230.128 68.0537 230.053 68.057V68.057Z" fill="black"/>
<path d="M255.441 68.0566H244.639C244.428 68.0566 244.256 68.2284 244.256 68.4402V116.872C244.256 117.084 244.428 117.256 244.639 117.256H255.441C255.653 117.256 255.825 117.084 255.825 116.872V68.4402C255.825 68.2284 255.653 68.0566 255.441 68.0566Z" fill="black"/>
<path d="M500.617 68.0566H489.815C489.603 68.0566 489.432 68.2284 489.432 68.4402V116.872C489.432 117.084 489.603 117.256 489.815 117.256H500.617C500.829 117.256 501.001 117.084 501.001 116.872V68.4402C501.001 68.2284 500.829 68.0566 500.617 68.0566Z" fill="black"/>
<path d="M298.224 66.2713C298.224 66.2713 285.481 65.3615 276.098 69.4012C275.96 69.4619 275.843 69.5613 275.761 69.6873C275.679 69.8133 275.636 69.9604 275.636 70.1107V79.8501C275.639 79.9114 275.656 79.9711 275.687 80.0243C275.717 80.0775 275.76 80.1227 275.811 80.1559C275.863 80.1892 275.922 80.2096 275.983 80.2154C276.044 80.2213 276.105 80.2124 276.162 80.1895C286.085 76.3875 296.778 76.839 296.778 76.839C304.562 76.839 307.641 78.4039 308.232 85.3664C308.237 85.4217 308.229 85.4773 308.21 85.5294C308.191 85.5815 308.161 85.6288 308.122 85.6682C308.083 85.7075 308.036 85.738 307.984 85.7574C307.932 85.7768 307.877 85.7847 307.821 85.7806C301.478 85.2942 295.11 85.2193 288.757 85.5565C280.144 86.0759 271.07 90.8319 271.07 101.097C271.07 112.334 280.127 118.108 288.757 118.108H301.908C311.304 118.108 319.316 112.066 320.351 101.6C320.663 98.4258 320.29 88.3606 320.29 88.3606C320.29 74.5781 311.05 66.2713 298.224 66.2713ZM308.347 101.454C308.347 105.612 305.71 108.559 300.879 108.559H289.425C288.237 108.559 282.327 108.25 282.327 102.133C282.327 95.2891 287.989 95.0787 289.425 94.9429C296.5 94.2639 306.059 95.0175 307.988 95.1805C308.081 95.1914 308.168 95.2365 308.231 95.3073C308.293 95.3781 308.328 95.4695 308.327 95.5641L308.347 101.454Z" fill="black"/>
</g>
<defs>
<clipPath id="clip0_3334_23744">
<rect width="500" height="180" fill="white"/>
</clipPath>
</defs>
</svg>
