<svg width="50" height="50" viewBox="0 0 50 50" fill="none" xmlns="http://www.w3.org/2000/svg">
<path d="M31.2465 41.4004H18.6043C16.029 41.4004 14 39.3714 14 36.7961V12.6043C14 10.029 16.029 8 18.6043 8H31.3245C33.8998 8 35.9288 10.029 35.9288 12.6043V36.7961C35.8507 39.2934 33.8217 41.4004 31.2465 41.4004Z" stroke="black" stroke-width="2" stroke-miterlimit="10" stroke-linecap="round" stroke-linejoin="round"/>
<path d="M21.3359 12.2148H28.5155" stroke="black" stroke-width="2" stroke-miterlimit="10" stroke-linecap="round" stroke-linejoin="round"/>
<path d="M24.9247 37.655C25.4849 37.655 25.9392 37.2008 25.9392 36.6405C25.9392 36.0802 25.4849 35.626 24.9247 35.626C24.3644 35.626 23.9102 36.0802 23.9102 36.6405C23.9102 37.2008 24.3644 37.655 24.9247 37.655Z" stroke="black" stroke-width="2" stroke-miterlimit="10" stroke-linecap="round" stroke-linejoin="round"/>
</svg>
