<svg width="50" height="50" viewBox="0 0 50 50" fill="none" xmlns="http://www.w3.org/2000/svg">
<path d="M36.1501 13.8154C36.1246 13.6383 35.9717 13.5427 35.8414 13.5315C35.714 13.5202 33.0037 13.3206 33.0037 13.3206C33.0037 13.3206 31.1232 11.4649 30.9164 11.2596C30.7097 11.0543 30.3075 11.1162 30.1489 11.1612C30.1263 11.1668 29.7383 11.2877 29.0954 11.4845C28.4667 9.68786 27.3565 8.0374 25.4052 8.0374C25.3514 8.0374 25.2947 8.0374 25.2409 8.04302C24.6858 7.31479 23.9976 6.99707 23.4057 6.99707C18.8602 6.99707 16.688 12.6401 16.0055 15.5081C14.2383 16.0507 12.9837 16.4387 12.8222 16.4865C11.8367 16.793 11.8055 16.8239 11.6752 17.7462C11.5761 18.4435 8.99609 38.2547 8.99609 38.2547L29.1039 41.9943L39.9989 39.6549C39.9989 39.6549 36.1756 13.9841 36.1501 13.8098V13.8154ZM27.9852 11.8276C27.4811 11.9822 26.9062 12.1593 26.2831 12.3505C26.2831 12.2324 26.2831 12.1144 26.2831 11.985C26.2831 10.8688 26.1274 9.96903 25.8781 9.25767C26.8835 9.3842 27.5547 10.5201 27.9852 11.8276ZM24.632 9.4798C24.9124 10.1743 25.0937 11.1724 25.0937 12.5221C25.0937 12.5895 25.0937 12.6542 25.0937 12.7189C23.9863 13.0591 22.7855 13.4274 21.579 13.7986C22.2559 11.2062 23.5247 9.95497 24.632 9.48261V9.4798ZM23.2811 8.21172C23.4765 8.21172 23.6748 8.27639 23.8645 8.40573C22.406 9.08616 20.8455 10.8013 20.1857 14.2259C19.2228 14.5212 18.2797 14.8108 17.4074 15.0807C18.1805 12.4686 20.0157 8.21172 23.2811 8.21172V8.21172Z" fill="#95BF47"/>
<path d="M35.8469 13.5319C35.7195 13.5207 33.0092 13.3211 33.0092 13.3211C33.0092 13.3211 31.1287 11.4653 30.9219 11.2601C30.8454 11.1842 30.7407 11.1448 30.6302 11.1279L29.1094 42.0004L40.0016 39.661C40.0016 39.661 36.1783 13.9902 36.1528 13.8159C36.1273 13.6388 35.9743 13.5432 35.8441 13.5319H35.8469Z" fill="#5E8E3E"/>
<path d="M25.409 19.5065L24.0666 23.4738C24.0666 23.4738 22.8885 22.8496 21.4469 22.8496C19.3314 22.8496 19.2266 24.1683 19.2266 24.5001C19.2266 26.3108 23.9845 27.0053 23.9845 31.2509C23.9845 34.5912 21.8519 36.7394 18.9745 36.7394C15.5222 36.7394 13.7578 34.6081 13.7578 34.6081L14.6811 31.5771C14.6811 31.5771 16.4964 33.1235 18.0258 33.1235C19.0255 33.1235 19.4333 32.3419 19.4333 31.7711C19.4333 29.4065 15.5307 29.3024 15.5307 25.4195C15.5307 22.1523 17.8927 18.9863 22.6647 18.9863C24.5027 18.9863 25.4118 19.5093 25.4118 19.5093L25.409 19.5065Z" fill="white"/>
</svg>
