<svg width="155" height="40" viewBox="0 0 155 40" fill="none" xmlns="http://www.w3.org/2000/svg">
<path d="M47.6133 19.0913C47.6133 13.875 51.6288 10.6056 56.5671 10.6056C58.0032 10.5517 59.426 10.8964 60.6752 11.6007C61.9245 12.305 62.9505 13.3409 63.6379 14.592L60.0651 16.4461C59.7173 15.8251 59.2112 15.3053 58.5974 14.9388C57.9836 14.5722 57.2836 14.3716 56.5671 14.3571C53.861 14.3571 51.953 16.3967 51.953 19.1037C51.9233 19.7202 52.0209 20.3363 52.24 20.9141C52.4591 21.4919 52.7949 22.0192 53.227 22.4637C53.6591 22.9081 54.1782 23.2604 54.7526 23.4989C55.327 23.7373 55.9444 23.8569 56.5671 23.8503C57.6619 23.8455 58.7279 23.5019 59.6162 22.8676V21.5635H55.875V17.8553H63.8624V24.3695C62.9496 25.3976 61.8221 26.2165 60.558 26.7694C59.2939 27.3222 57.9236 27.5957 56.5422 27.5709C51.6288 27.5709 47.6133 24.3015 47.6133 19.0913Z" fill="black"/>
<path d="M73.3589 27.2742V26.0937C72.8745 26.586 72.2911 26.9719 71.6467 27.2263C71.0022 27.4808 70.3109 27.5982 69.6177 27.5708C69.0863 27.5899 68.5564 27.5029 68.0595 27.3152C67.5626 27.1274 67.1088 26.8427 66.725 26.4778C66.3412 26.1129 66.0352 25.6754 65.8252 25.1911C65.6152 24.7068 65.5054 24.1857 65.5024 23.6586C65.5024 20.7847 67.7845 19.8205 69.6177 19.8205C71.2077 19.8205 72.6231 20.3397 73.3589 21.2235V20.043C73.3589 19.0109 72.4672 18.3001 70.9271 18.3001C69.6934 18.3203 68.507 18.7737 67.5788 19.5795L66.1634 16.9466C67.7016 15.7179 69.6253 15.0619 71.6005 15.0925C74.475 15.0925 77.1811 16.1493 77.1811 19.8391V27.2556L73.3589 27.2742ZM73.3589 24.2272V23.1641C73.0891 22.8757 72.7575 22.651 72.3884 22.5066C72.0193 22.3621 71.6222 22.3017 71.2264 22.3298C70.235 22.3298 69.3184 22.7748 69.3184 23.708C69.3184 24.6413 70.235 25.0863 71.2264 25.0863C71.6241 25.1103 72.0221 25.0456 72.3911 24.897C72.7602 24.7483 73.0909 24.5194 73.3589 24.2272V24.2272Z" fill="black"/>
<path d="M95.0708 27.2742V20.043C95.0934 19.8314 95.0679 19.6174 94.9963 19.4168C94.9247 19.2162 94.8087 19.0339 94.6569 18.8835C94.5051 18.733 94.3213 18.618 94.1189 18.547C93.9164 18.4761 93.7006 18.4508 93.4871 18.4732C93.0619 18.4877 92.6458 18.5996 92.2715 18.8001C91.8972 19.0006 91.5749 19.2843 91.3297 19.6289V27.2742H87.5012V20.043C87.5269 19.8324 87.5042 19.6187 87.4349 19.418C87.3656 19.2172 87.2515 19.0345 87.101 18.8836C86.9506 18.7327 86.7677 18.6174 86.566 18.5463C86.3643 18.4753 86.149 18.4503 85.9362 18.4732C85.5117 18.4914 85.097 18.6049 84.7233 18.8051C84.3496 19.0053 84.0266 19.287 83.7788 19.6289V27.2742H79.9565V15.383H83.7788V16.8354C84.2759 16.2856 84.8843 15.8457 85.5643 15.5443C86.2444 15.243 86.9808 15.0869 87.7257 15.0863C89.4591 15.0863 90.6251 15.8032 91.1239 17.2062C91.5966 16.5544 92.2181 16.0226 92.9376 15.6542C93.6571 15.2858 94.4543 15.0912 95.2641 15.0863C97.4714 15.0863 98.8619 16.2173 98.8619 18.6524V27.2742H95.0708Z" fill="black"/>
<path d="M100.895 21.3226C100.88 20.4948 101.034 19.6724 101.349 18.9054C101.663 18.1385 102.132 17.4429 102.726 16.8608C103.32 16.2788 104.028 15.8226 104.805 15.5197C105.582 15.2168 106.414 15.0737 107.249 15.0989C110.797 15.0989 113.372 17.6824 113.372 21.7182V22.5773H104.842C105.116 23.6341 106.089 24.5179 107.841 24.5179C108.901 24.4994 109.928 24.1465 110.772 23.5105L112.43 25.9827C111.239 27.0396 109.257 27.5587 107.442 27.5587C103.726 27.5711 100.895 25.1854 100.895 21.3226ZM107.249 18.1521C105.584 18.1521 104.942 19.1348 104.792 20.0062H109.73C109.631 19.1595 109.007 18.1521 107.249 18.1521Z" fill="black"/>
<path d="M115.254 27.2743V10.8713H119.051V16.7984C119.47 16.2624 120.008 15.83 120.623 15.5351C121.239 15.2402 121.915 15.0908 122.599 15.0988C125.604 15.0988 127.887 17.435 127.887 21.3225C127.887 25.3584 125.555 27.571 122.599 27.571C121.919 27.5697 121.247 27.4182 120.634 27.1274C120.02 26.8366 119.479 26.4138 119.051 25.8899V27.2681L115.254 27.2743ZM121.358 24.2273C122.873 24.2273 124.014 23.121 124.014 21.3225C124.014 19.524 122.873 18.4733 121.358 18.4733C120.92 18.4746 120.486 18.5697 120.088 18.7521C119.69 18.9345 119.336 19.1999 119.051 19.5302V23.1643C119.335 23.4966 119.688 23.7639 120.087 23.9474C120.485 24.131 120.919 24.2265 121.358 24.2273Z" fill="black"/>
<path d="M136.989 27.2744V26.0939C136.503 26.5843 135.92 26.969 135.276 27.2233C134.631 27.4777 133.941 27.5961 133.248 27.571C132.716 27.5909 132.185 27.5046 131.688 27.3172C131.19 27.1299 130.736 26.8452 130.351 26.4803C129.967 26.1153 129.66 25.6775 129.45 25.1928C129.239 24.7081 129.129 24.1864 129.126 23.6588C129.126 20.7849 131.409 19.8207 133.248 19.8207C134.832 19.8207 136.247 20.3399 136.989 21.2237V20.0432C136.989 19.0111 136.091 18.3003 134.557 18.3003C133.324 18.3205 132.137 18.7739 131.209 19.5797L129.794 16.9468C131.33 15.7186 133.251 15.0625 135.225 15.0927C138.105 15.0927 140.805 16.1495 140.805 19.8393V27.2558L136.989 27.2744ZM136.989 24.2274V23.1644C136.718 22.8758 136.385 22.651 136.015 22.5066C135.645 22.3623 135.247 22.3019 134.85 22.33C133.859 22.33 132.942 22.775 132.942 23.7082C132.942 24.6415 133.859 25.0865 134.85 25.0865C135.249 25.1106 135.648 25.046 136.018 24.8973C136.388 24.7486 136.72 24.5198 136.989 24.2274Z" fill="black"/>
<path d="M143.587 27.2743V10.8713H147.403V27.2743H143.587Z" fill="black"/>
<path d="M150.186 27.2743V10.8713H154.008V27.2743H150.186Z" fill="black"/>
<path d="M20.1916 40C15.4909 40.0033 10.9366 38.3797 7.31484 35.4094C3.6931 32.4392 1.23124 28.3088 0.354281 23.7312C-0.522683 19.1537 0.240284 14.4162 2.51146 10.3368C4.78265 6.25737 8.4195 3.09196 12.7942 1.38703C17.1689 -0.3179 22.0068 -0.455349 26.4728 0.998414C30.9389 2.45218 34.7527 5.40591 37.2558 9.3497C39.759 13.2935 40.7945 17.9798 40.1835 22.5997C39.5725 27.2195 37.3533 31.4829 33.9092 34.6539C30.1768 38.0811 25.2794 39.9897 20.1916 40Z" fill="#E6E6E6"/>
<path d="M33.3614 29.5365C35.7932 27.3138 37.6039 24.5055 38.6178 21.3845C38.8349 18.8647 38.5226 16.3276 37.7007 13.9335C36.8787 11.5394 35.5648 9.34018 33.8421 7.47477C32.1193 5.60936 30.0251 4.11827 27.6916 3.09562C25.3581 2.07298 22.836 1.541 20.2847 1.53329C17.7333 1.52557 15.208 2.04228 12.8683 3.05079C10.5285 4.05931 8.42514 5.53771 6.69094 7.39267C4.95673 9.24762 3.62937 11.4388 2.79266 13.8279C1.95595 16.2171 1.62806 18.7522 1.82971 21.2732C2.68513 23.9798 4.1426 26.4615 6.09463 28.5353C9.5814 32.2437 14.4087 34.4312 19.5194 34.6189C24.63 34.8065 29.6074 32.979 33.3614 29.5365V29.5365Z" fill="#FFCF48"/>
<path d="M20.2037 38.2879C24.8583 38.2932 29.3428 36.5539 32.7578 33.4189C36.1727 30.2838 38.2655 25.9849 38.6164 21.3843C37.3484 25.2365 34.8809 28.591 31.5685 30.9657C28.2561 33.3404 24.2695 34.613 20.1815 34.6007C16.0936 34.5883 12.1149 33.2916 8.81718 30.8969C5.51949 28.5022 3.07267 25.1328 1.82837 21.2731C2.15318 25.8866 4.22935 30.2068 7.63885 33.3639C11.0483 36.5209 15.5379 38.2804 20.2037 38.2879V38.2879Z" fill="#DD9F17"/>
<path d="M18.8998 14.7219H9.9397L11.3302 19.2028L9.9397 23.6774H14.4229V15.8159L18.8998 14.7219Z" fill="#A5452F"/>
<path d="M18.9012 15.8159V14.7219L14.4243 15.8159H18.9012Z" fill="#3D2B28"/>
<path d="M14.4243 15.8157V23.6772V24.9937H26.8075L29.1957 15.8157H18.9012H14.4243Z" fill="#E7633F"/>
<path d="M31.5265 15.2966C31.5951 15.0262 31.5532 14.7398 31.4097 14.4999C31.2662 14.26 31.0329 14.086 30.7606 14.0159C30.4883 13.9458 30.1991 13.9852 29.9559 14.1255C29.7128 14.2658 29.5355 14.4958 29.4626 14.7651L29.1883 15.8096L26.8064 24.9938L24.4121 34.1965L23.4207 38.0099C24.2151 37.8678 25.0002 37.6779 25.7713 37.4413V37.4413L26.769 33.5228L31.5265 15.2966Z" fill="#15161E"/>
</svg>
